<?xml version="1.0" standalone="no"?>
<!DOCTYPE svg PUBLIC "-//W3C//DTD SVG 20010904//EN"
 "http://www.w3.org/TR/2001/REC-SVG-20010904/DTD/svg10.dtd">
<svg version="1.0" xmlns="http://www.w3.org/2000/svg"
 width="1178.000000pt" height="1251.000000pt" viewBox="0 0 1178.000000 1251.000000"
 preserveAspectRatio="xMidYMid meet">

<g transform="translate(0.000000,1251.000000) scale(0.100000,-0.100000)"
fill="#000000" stroke="none">
<path d="M0 12470 l0 -40 40 0 40 0 0 -40 0 -40 -40 0 -40 0 0 -360 0 -360 40
0 40 0 0 -40 0 -40 -40 0 -40 0 0 -120 0 -120 40 0 40 0 0 -40 0 -40 -40 0
-40 0 0 -40 0 -40 40 0 40 0 0 -40 0 -40 -40 0 -40 0 0 -40 0 -40 40 0 40 0 0
-40 0 -40 -40 0 -40 0 0 -40 0 -40 40 0 40 0 0 -40 0 -40 -40 0 -40 0 0 -40 0
-40 40 0 40 0 0 -120 0 -120 40 0 40 0 0 -120 0 -120 40 0 40 0 0 -40 0 -40
-40 0 -40 0 0 -40 0 -40 40 0 40 0 0 -40 0 -40 40 0 40 0 0 -40 0 -40 40 0 40
0 0 -40 0 -40 -40 0 -40 0 0 -40 0 -40 40 0 40 0 0 -40 0 -40 -40 0 -40 0 0
-40 0 -40 40 0 40 0 0 -40 0 -40 -40 0 -40 0 0 -40 0 -40 40 0 40 0 0 -40 0
-40 -40 0 -40 0 0 -40 0 -40 40 0 40 0 0 -120 0 -120 40 0 40 0 0 -40 0 -40
40 0 40 0 0 -40 0 -40 -40 0 -40 0 0 -40 0 -40 40 0 40 0 0 -40 0 -40 -40 0
-40 0 0 -40 0 -40 40 0 40 0 0 -40 0 -40 -40 0 -40 0 0 -40 0 -40 40 0 40 0 0
-40 0 -40 -40 0 -40 0 0 -40 0 -40 40 0 40 0 0 -120 0 -120 40 0 40 0 0 -120
0 -120 40 0 40 0 0 -40 0 -40 -40 0 -40 0 0 -40 0 -40 40 0 40 0 0 -40 0 -40
-40 0 -40 0 0 -40 0 -40 40 0 40 0 0 -40 0 -40 -40 0 -40 0 0 -120 0 -120 40
0 40 0 0 -40 0 -40 -40 0 -40 0 0 -40 0 -40 40 0 40 0 0 -40 0 -40 -40 0 -40
0 0 -40 0 -40 40 0 40 0 0 -40 0 -40 -40 0 -40 0 0 -40 0 -40 40 0 40 0 0
-200 0 -200 40 0 40 0 0 -120 0 -120 40 0 40 0 0 -40 0 -40 -40 0 -40 0 0 -40
0 -40 40 0 40 0 0 -40 0 -40 -40 0 -40 0 0 -40 0 -40 40 0 40 0 0 -120 0 -120
40 0 40 0 0 -200 0 -200 40 0 40 0 0 -200 0 -200 40 0 40 0 0 -120 0 -120 40
0 40 0 0 40 0 40 40 0 40 0 0 40 0 40 40 0 40 0 0 40 0 40 120 0 120 0 0 40 0
40 120 0 120 0 0 40 0 40 40 0 40 0 0 40 0 40 120 0 120 0 0 40 0 40 40 0 40
0 0 40 0 40 120 0 120 0 0 40 0 40 120 0 120 0 0 40 0 40 80 0 80 0 0 40 0 40
80 0 80 0 0 40 0 40 80 0 80 0 0 40 0 40 80 0 80 0 0 40 0 40 40 0 40 0 0 40
0 40 160 0 160 0 0 40 0 40 200 0 200 0 0 40 0 40 40 0 40 0 0 40 0 40 40 0
40 0 0 80 0 80 40 0 40 0 0 40 0 40 40 0 40 0 0 -200 0 -200 40 0 40 0 0 -80
0 -80 40 0 40 0 0 -40 0 -40 40 0 40 0 0 -40 0 -40 40 0 40 0 0 -80 0 -80 40
0 40 0 0 -40 0 -40 40 0 40 0 0 -40 0 -40 40 0 40 0 0 -40 0 -40 -40 0 -40 0
0 -40 0 -40 -40 0 -40 0 0 40 0 40 -40 0 -40 0 0 40 0 40 -40 0 -40 0 0 40 0
40 -120 0 -120 0 0 40 0 40 -40 0 -40 0 0 40 0 40 -40 0 -40 0 0 40 0 40 40 0
40 0 0 40 0 40 -40 0 -40 0 0 40 0 40 -40 0 -40 0 0 -40 0 -40 -40 0 -40 0 0
-40 0 -40 40 0 40 0 0 -40 0 -40 -40 0 -40 0 0 -40 0 -40 -40 0 -40 0 0 40 0
40 -40 0 -40 0 0 -40 0 -40 40 0 40 0 0 -40 0 -40 40 0 40 0 0 -40 0 -40 40 0
40 0 0 -40 0 -40 -40 0 -40 0 0 -40 0 -40 40 0 40 0 0 40 0 40 40 0 40 0 0
-40 0 -40 40 0 40 0 0 -40 0 -40 40 0 40 0 0 -40 0 -40 40 0 40 0 0 -40 0 -40
40 0 40 0 0 -40 0 -40 40 0 40 0 0 -40 0 -40 40 0 40 0 0 -40 0 -40 40 0 40 0
0 -40 0 -40 40 0 40 0 0 -40 0 -40 40 0 40 0 0 -40 0 -40 -40 0 -40 0 0 -40 0
-40 40 0 40 0 0 40 0 40 40 0 40 0 0 -40 0 -40 40 0 40 0 0 -40 0 -40 -40 0
-40 0 0 -40 0 -40 40 0 40 0 0 -40 0 -40 -40 0 -40 0 0 -40 0 -40 40 0 40 0 0
-40 0 -40 -120 0 -120 0 0 -40 0 -40 -40 0 -40 0 0 -40 0 -40 -40 0 -40 0 0
-40 0 -40 40 0 40 0 0 -40 0 -40 -40 0 -40 0 0 -40 0 -40 40 0 40 0 0 -40 0
-40 -40 0 -40 0 0 -40 0 -40 40 0 40 0 0 -40 0 -40 -40 0 -40 0 0 -40 0 -40
40 0 40 0 0 -40 0 -40 -40 0 -40 0 0 -40 0 -40 40 0 40 0 0 -40 0 -40 -40 0
-40 0 0 -40 0 -40 40 0 40 0 0 -40 0 -40 -40 0 -40 0 0 -120 0 -120 40 0 40 0
0 -40 0 -40 -40 0 -40 0 0 -40 0 -40 40 0 40 0 0 -40 0 -40 -120 0 -120 0 0
-40 0 -40 40 0 40 0 0 -40 0 -40 -120 0 -120 0 0 -40 0 -40 -40 0 -40 0 0 40
0 40 -40 0 -40 0 0 40 0 40 40 0 40 0 0 40 0 40 40 0 40 0 0 40 0 40 40 0 40
0 0 40 0 40 -40 0 -40 0 0 40 0 40 40 0 40 0 0 40 0 40 -40 0 -40 0 0 -40 0
-40 -40 0 -40 0 0 40 0 40 -40 0 -40 0 0 40 0 40 -40 0 -40 0 0 40 0 40 -40 0
-40 0 0 -40 0 -40 40 0 40 0 0 -40 0 -40 -40 0 -40 0 0 -40 0 -40 40 0 40 0 0
-40 0 -40 -40 0 -40 0 0 -40 0 -40 40 0 40 0 0 -40 0 -40 -40 0 -40 0 0 -40 0
-40 -40 0 -40 0 0 40 0 40 -40 0 -40 0 0 40 0 40 40 0 40 0 0 40 0 40 -40 0
-40 0 0 40 0 40 40 0 40 0 0 40 0 40 -40 0 -40 0 0 40 0 40 40 0 40 0 0 40 0
40 -40 0 -40 0 0 -40 0 -40 -40 0 -40 0 0 40 0 40 -40 0 -40 0 0 -40 0 -40
-40 0 -40 0 0 40 0 40 -120 0 -120 0 0 40 0 40 40 0 40 0 0 40 0 40 40 0 40 0
0 -40 0 -40 40 0 40 0 0 40 0 40 -40 0 -40 0 0 40 0 40 40 0 40 0 0 40 0 40
-40 0 -40 0 0 -40 0 -40 -40 0 -40 0 0 40 0 40 -40 0 -40 0 0 -40 0 -40 -40 0
-40 0 0 40 0 40 -40 0 -40 0 0 -40 0 -40 40 0 40 0 0 -40 0 -40 -40 0 -40 0 0
-40 0 -40 40 0 40 0 0 -40 0 -40 -40 0 -40 0 0 -40 0 -40 -40 0 -40 0 0 40 0
40 -40 0 -40 0 0 40 0 40 40 0 40 0 0 40 0 40 -40 0 -40 0 0 -40 0 -40 -40 0
-40 0 0 40 0 40 -40 0 -40 0 0 40 0 40 40 0 40 0 0 40 0 40 -40 0 -40 0 0 -40
0 -40 -40 0 -40 0 0 40 0 40 -40 0 -40 0 0 40 0 40 40 0 40 0 0 40 0 40 -40 0
-40 0 0 -40 0 -40 -40 0 -40 0 0 40 0 40 -40 0 -40 0 0 40 0 40 40 0 40 0 0
40 0 40 40 0 40 0 0 -40 0 -40 40 0 40 0 0 40 0 40 -40 0 -40 0 0 40 0 40 40
0 40 0 0 40 0 40 -40 0 -40 0 0 40 0 40 40 0 40 0 0 40 0 40 -40 0 -40 0 0 40
0 40 40 0 40 0 0 40 0 40 40 0 40 0 0 40 0 40 40 0 40 0 0 40 0 40 -40 0 -40
0 0 -40 0 -40 -40 0 -40 0 0 40 0 40 -40 0 -40 0 0 40 0 40 40 0 40 0 0 40 0
40 40 0 40 0 0 40 0 40 40 0 40 0 0 40 0 40 40 0 40 0 0 -40 0 -40 40 0 40 0
0 40 0 40 -40 0 -40 0 0 40 0 40 -40 0 -40 0 0 40 0 40 40 0 40 0 0 40 0 40
40 0 40 0 0 40 0 40 -40 0 -40 0 0 40 0 40 40 0 40 0 0 120 0 120 -40 0 -40 0
0 40 0 40 40 0 40 0 0 40 0 40 40 0 40 0 0 -40 0 -40 40 0 40 0 0 -40 0 -40
-40 0 -40 0 0 -40 0 -40 40 0 40 0 0 -40 0 -40 -40 0 -40 0 0 -40 0 -40 40 0
40 0 0 -40 0 -40 -40 0 -40 0 0 -40 0 -40 40 0 40 0 0 -40 0 -40 40 0 40 0 0
-120 0 -120 40 0 40 0 0 -40 0 -40 -40 0 -40 0 0 -40 0 -40 40 0 40 0 0 -40 0
-40 -40 0 -40 0 0 -40 0 -40 40 0 40 0 0 -40 0 -40 40 0 40 0 0 -40 0 -40 40
0 40 0 0 -40 0 -40 -40 0 -40 0 0 -40 0 -40 40 0 40 0 0 -40 0 -40 -40 0 -40
0 0 -40 0 -40 40 0 40 0 0 40 0 40 40 0 40 0 0 -40 0 -40 40 0 40 0 0 40 0 40
40 0 40 0 0 -40 0 -40 40 0 40 0 0 -40 0 -40 -40 0 -40 0 0 -40 0 -40 -40 0
-40 0 0 40 0 40 -40 0 -40 0 0 -40 0 -40 40 0 40 0 0 -40 0 -40 -40 0 -40 0 0
-40 0 -40 40 0 40 0 0 40 0 40 40 0 40 0 0 -40 0 -40 40 0 40 0 0 -40 0 -40
-40 0 -40 0 0 -40 0 -40 -40 0 -40 0 0 40 0 40 -40 0 -40 0 0 -40 0 -40 40 0
40 0 0 -40 0 -40 -40 0 -40 0 0 -40 0 -40 40 0 40 0 0 40 0 40 40 0 40 0 0
-40 0 -40 40 0 40 0 0 40 0 40 40 0 40 0 0 -40 0 -40 40 0 40 0 0 40 0 40 -40
0 -40 0 0 40 0 40 40 0 40 0 0 40 0 40 40 0 40 0 0 40 0 40 40 0 40 0 0 40 0
40 -40 0 -40 0 0 40 0 40 40 0 40 0 0 40 0 40 -40 0 -40 0 0 -40 0 -40 -40 0
-40 0 0 40 0 40 -40 0 -40 0 0 40 0 40 40 0 40 0 0 40 0 40 -40 0 -40 0 0 -40
0 -40 -40 0 -40 0 0 40 0 40 -40 0 -40 0 0 40 0 40 40 0 40 0 0 40 0 40 -40 0
-40 0 0 40 0 40 40 0 40 0 0 40 0 40 40 0 40 0 0 -40 0 -40 40 0 40 0 0 40 0
40 -40 0 -40 0 0 40 0 40 40 0 40 0 0 40 0 40 -40 0 -40 0 0 40 0 40 40 0 40
0 0 40 0 40 40 0 40 0 0 -40 0 -40 40 0 40 0 0 40 0 40 -40 0 -40 0 0 40 0 40
40 0 40 0 0 40 0 40 -40 0 -40 0 0 -40 0 -40 -40 0 -40 0 0 40 0 40 -40 0 -40
0 0 40 0 40 40 0 40 0 0 40 0 40 40 0 40 0 0 -40 0 -40 40 0 40 0 0 40 0 40
-40 0 -40 0 0 40 0 40 40 0 40 0 0 40 0 40 -40 0 -40 0 0 -40 0 -40 -40 0 -40
0 0 40 0 40 -40 0 -40 0 0 -40 0 -40 40 0 40 0 0 -40 0 -40 -40 0 -40 0 0 -40
0 -40 -40 0 -40 0 0 40 0 40 -40 0 -40 0 0 -40 0 -40 40 0 40 0 0 -40 0 -40
40 0 40 0 0 -40 0 -40 -40 0 -40 0 0 -40 0 -40 -40 0 -40 0 0 -40 0 -40 40 0
40 0 0 -40 0 -40 -40 0 -40 0 0 -40 0 -40 -40 0 -40 0 0 40 0 40 -40 0 -40 0
0 -40 0 -40 -40 0 -40 0 0 40 0 40 -40 0 -40 0 0 40 0 40 40 0 40 0 0 40 0 40
-40 0 -40 0 0 40 0 40 40 0 40 0 0 40 0 40 -40 0 -40 0 0 40 0 40 40 0 40 0 0
40 0 40 -40 0 -40 0 0 40 0 40 -40 0 -40 0 0 40 0 40 40 0 40 0 0 40 0 40 40
0 40 0 0 40 0 40 -40 0 -40 0 0 40 0 40 -40 0 -40 0 0 120 0 120 40 0 40 0 0
120 0 120 40 0 40 0 0 40 0 40 40 0 40 0 0 40 0 40 40 0 40 0 0 40 0 40 -40 0
-40 0 0 40 0 40 80 0 80 0 0 40 0 40 -80 0 -80 0 0 -40 0 -40 -40 0 -40 0 0
-40 0 -40 -80 0 -80 0 0 -80 0 -80 -40 0 -40 0 0 -80 0 -80 -40 0 -40 0 0 -80
0 -80 -40 0 -40 0 0 40 0 40 -40 0 -40 0 0 -40 0 -40 -40 0 -40 0 0 -40 0 -40
-40 0 -40 0 0 -40 0 -40 -40 0 -40 0 0 -40 0 -40 -40 0 -40 0 0 40 0 40 -40 0
-40 0 0 40 0 40 40 0 40 0 0 40 0 40 40 0 40 0 0 40 0 40 40 0 40 0 0 40 0 40
-40 0 -40 0 0 -40 0 -40 -40 0 -40 0 0 40 0 40 -40 0 -40 0 0 -80 0 -80 -80 0
-80 0 0 -40 0 -40 -40 0 -40 0 0 40 0 40 -40 0 -40 0 0 -40 0 -40 40 0 40 0 0
-40 0 -40 -120 0 -120 0 0 40 0 40 40 0 40 0 0 40 0 40 -40 0 -40 0 0 -40 0
-40 -40 0 -40 0 0 -40 0 -40 -40 0 -40 0 0 -40 0 -40 -40 0 -40 0 0 40 0 40
-40 0 -40 0 0 -40 0 -40 -40 0 -40 0 0 -40 0 -40 -120 0 -120 0 0 -40 0 -40
-40 0 -40 0 0 -40 0 -40 -120 0 -120 0 0 -40 0 -40 40 0 40 0 0 -40 0 -40 -40
0 -40 0 0 -40 0 -40 -40 0 -40 0 0 40 0 40 -40 0 -40 0 0 -40 0 -40 -40 0 -40
0 0 -40 0 -40 40 0 40 0 0 -40 0 -40 40 0 40 0 0 -40 0 -40 -40 0 -40 0 0 -40
0 -40 -40 0 -40 0 0 40 0 40 -40 0 -40 0 0 -40 0 -40 40 0 40 0 0 -40 0 -40
-40 0 -40 0 0 -40 0 -40 40 0 40 0 0 -40 0 -40 -40 0 -40 0 0 -40 0 -40 40 0
40 0 0 -40 0 -40 -40 0 -40 0 0 -40 0 -40 -40 0 -40 0 0 40 0 40 -40 0 -40 0
0 40 0 40 -40 0 -40 0 0 -40 0 -40 -40 0 -40 0 0 -40 0 -40 40 0 40 0 0 40 0
40 40 0 40 0 0 -40 0 -40 40 0 40 0 0 -40 0 -40 -40 0 -40 0 0 -40 0 -40 -40
0 -40 0 0 40 0 40 -40 0 -40 0 0 -40 0 -40 -40 0 -40 0 0 -40 0 -40 -40 0 -40
0 0 -40 0 -40 40 0 40 0 0 -40 0 -40 -40 0 -40 0 0 -40 0 -40 40 0 40 0 0 -40
0 -40 -40 0 -40 0 0 -40 0 -40 40 0 40 0 0 -40 0 -40 -40 0 -40 0 0 -40 0 -40
-40 0 -40 0 0 40 0 40 -40 0 -40 0 0 -40 0 -40 40 0 40 0 0 -40 0 -40 -40 0
-40 0 0 -40 0 -40 -40 0 -40 0 0 -120 0 -120 -40 0 -40 0 0 -40 0 -40 40 0 40
0 0 -40 0 -40 -40 0 -40 0 0 -40 0 -40 40 0 40 0 0 40 0 40 40 0 40 0 0 -40 0
-40 40 0 40 0 0 -40 0 -40 -120 0 -120 0 0 -40 0 -40 -40 0 -40 0 0 -200 0
-200 -40 0 -40 0 0 -40 0 -40 40 0 40 0 0 -40 0 -40 -40 0 -40 0 0 -120 0
-120 -40 0 -40 0 0 -40 0 -40 40 0 40 0 0 -40 0 -40 -40 0 -40 0 0 -40 0 -40
-40 0 -40 0 0 -40 0 -40 40 0 40 0 0 -40 0 -40 -40 0 -40 0 0 -40 0 -40 40 0
40 0 0 -40 0 -40 -40 0 -40 0 0 -40 0 -40 40 0 40 0 0 -40 0 -40 -40 0 -40 0
0 -120 0 -120 40 0 40 0 0 -40 0 -40 -40 0 c-29 0 -40 -4 -40 -15 0 -13 198
-15 1720 -15 1522 0 1720 2 1720 15 0 11 11 15 40 15 29 0 40 -4 40 -15 0 -11
11 -15 40 -15 29 0 40 4 40 15 0 11 -11 15 -40 15 l-40 0 0 40 0 40 40 0 40 0
0 40 0 40 40 0 40 0 0 -40 0 -40 40 0 40 0 0 -40 0 -40 -40 0 c-29 0 -40 -4
-40 -15 0 -13 78 -15 640 -15 l640 0 0 55 0 55 40 0 40 0 0 40 0 40 -40 0 -40
0 0 40 0 40 120 0 120 0 0 -40 0 -40 -40 0 -40 0 0 -40 0 -40 40 0 40 0 0 40
0 40 40 0 40 0 0 -40 0 -40 40 0 40 0 0 -40 0 -40 -40 0 c-29 0 -40 -4 -40
-15 0 -11 11 -15 40 -15 29 0 40 4 40 15 0 11 11 15 40 15 l40 0 0 40 0 40 40
0 40 0 0 -55 0 -55 40 0 40 0 0 55 0 55 -40 0 -40 0 0 40 0 40 40 0 40 0 0 40
0 40 80 0 80 0 0 -40 0 -40 -40 0 -40 0 0 -80 0 -80 40 0 c29 0 40 -4 40 -15
0 -13 38 -15 280 -15 242 0 280 2 280 15 0 11 11 15 40 15 29 0 40 -4 40 -15
0 -12 20 -15 120 -15 100 0 120 3 120 15 0 11 11 15 40 15 29 0 40 -4 40 -15
0 -13 288 -15 2530 -15 l2530 0 0 1975 c0 1310 -3 1975 -10 1975 -5 0 -10 18
-10 40 0 22 5 40 10 40 6 0 10 18 10 40 0 22 -4 40 -10 40 -5 0 -10 18 -10 40
0 22 5 40 10 40 6 0 10 18 10 40 0 22 -4 40 -10 40 -5 0 -10 18 -10 40 l0 40
-40 0 -40 0 0 40 0 40 40 0 40 0 0 40 c0 22 5 40 10 40 6 0 10 18 10 40 0 22
-4 40 -10 40 -5 0 -10 18 -10 40 l0 40 -40 0 -40 0 0 40 0 40 40 0 40 0 0 40
0 40 -40 0 -40 0 0 -40 0 -40 -40 0 -40 0 0 40 0 40 -40 0 -40 0 0 -40 0 -40
-40 0 -40 0 0 40 0 40 -40 0 -40 0 0 -40 0 -40 -40 0 -40 0 0 40 0 40 -40 0
-40 0 0 40 0 40 40 0 40 0 0 40 0 40 -40 0 -40 0 0 -40 0 -40 -40 0 -40 0 0
40 0 40 -40 0 -40 0 0 40 0 40 40 0 40 0 0 40 0 40 -40 0 -40 0 0 -40 0 -40
-40 0 -40 0 0 40 0 40 -40 0 -40 0 0 -40 0 -40 40 0 40 0 0 -40 0 -40 -40 0
-40 0 0 -40 0 -40 40 0 40 0 0 40 0 40 40 0 40 0 0 -40 0 -40 40 0 40 0 0 -40
0 -40 -40 0 -40 0 0 -40 0 -40 -40 0 -40 0 0 40 0 40 -40 0 -40 0 0 -40 0 -40
40 0 40 0 0 -40 0 -40 -40 0 -40 0 0 -40 0 -40 -40 0 -40 0 0 40 0 40 -40 0
-40 0 0 -40 0 -40 40 0 40 0 0 -40 0 -40 -40 0 -40 0 0 -40 0 -40 40 0 40 0 0
-40 0 -40 -40 0 -40 0 0 -40 0 -40 40 0 40 0 0 -40 0 -40 -40 0 -40 0 0 -40 0
-40 40 0 40 0 0 40 0 40 40 0 40 0 0 -40 0 -40 40 0 40 0 0 -40 0 -40 -40 0
-40 0 0 -40 0 -40 -40 0 -40 0 0 40 0 40 -80 0 -80 0 0 80 0 80 -80 0 -80 0 0
40 0 40 -80 0 -80 0 0 40 0 40 -40 0 -40 0 0 40 0 40 -40 0 -40 0 0 40 0 40
-120 0 -120 0 0 40 0 40 -40 0 -40 0 0 40 0 40 -40 0 -40 0 0 40 0 40 80 0 80
0 0 -40 0 -40 80 0 80 0 0 -40 0 -40 120 0 120 0 0 40 0 40 40 0 40 0 0 -40 0
-40 40 0 40 0 0 40 0 40 -40 0 -40 0 0 40 0 40 40 0 40 0 0 40 0 40 -40 0 -40
0 0 -40 0 -40 -40 0 -40 0 0 200 0 200 -40 0 -40 0 0 120 0 120 40 0 40 0 0
40 0 40 -40 0 -40 0 0 40 0 40 40 0 40 0 0 40 0 40 -40 0 -40 0 0 40 0 40 40
0 40 0 0 200 0 200 -40 0 -40 0 0 40 0 40 40 0 40 0 0 40 0 40 -40 0 -40 0 0
80 0 80 -40 0 -40 0 0 80 0 80 -40 0 -40 0 0 40 0 40 40 0 40 0 0 40 0 40 -40
0 -40 0 0 40 0 40 40 0 40 0 0 360 0 360 40 0 40 0 0 40 0 40 -40 0 -40 0 0
120 0 120 -40 0 -40 0 0 120 0 120 -40 0 -40 0 0 120 0 120 -40 0 -40 0 0 160
0 160 -40 0 -40 0 0 80 0 80 -40 0 -40 0 0 120 0 120 -40 0 -40 0 0 120 0 120
-40 0 -40 0 0 120 0 120 -40 0 -40 0 0 40 0 40 -40 0 -40 0 0 40 0 40 40 0 40
0 0 40 0 40 -40 0 -40 0 0 280 0 280 -40 0 -40 0 0 40 0 40 -40 0 -40 0 0 80
0 80 -40 0 -40 0 0 40 0 40 -40 0 -40 0 0 40 0 40 -40 0 -40 0 0 40 0 40 -40
0 -40 0 0 80 0 80 -40 0 -40 0 0 200 0 200 -40 0 -40 0 0 40 0 40 -40 0 -40 0
0 200 0 200 -40 0 -40 0 0 40 0 40 -40 0 -40 0 0 120 0 120 -40 0 -40 0 0 160
0 160 -4240 0 -4240 0 0 -40z m560 -560 l0 -40 -40 0 -40 0 0 40 0 40 40 0 40
0 0 -40z m-320 -320 l0 -40 -40 0 -40 0 0 40 0 40 40 0 40 0 0 -40z m160 0 l0
-40 -40 0 -40 0 0 40 0 40 40 0 40 0 0 -40z m1200 -80 l0 -40 -40 0 -40 0 0
40 0 40 40 0 40 0 0 -40z m-1360 -80 l0 -40 -40 0 -40 0 0 40 0 40 40 0 40 0
0 -40z m160 -160 l0 -40 -40 0 -40 0 0 40 0 40 40 0 40 0 0 -40z m0 -320 l0
-40 -40 0 -40 0 0 40 0 40 40 0 40 0 0 -40z m-160 -160 l0 -40 -40 0 -40 0 0
40 0 40 40 0 40 0 0 -40z m160 0 l0 -40 -40 0 -40 0 0 40 0 40 40 0 40 0 0
-40z m0 -160 l0 -40 -40 0 -40 0 0 40 0 40 40 0 40 0 0 -40z m4880 -240 l0
-40 120 0 120 0 0 -40 0 -40 40 0 40 0 0 40 0 40 40 0 40 0 0 -40 0 -40 40 0
40 0 0 -40 0 -40 40 0 40 0 0 -40 0 -40 40 0 40 0 0 40 0 40 40 0 40 0 0 -40
0 -40 40 0 40 0 0 -40 0 -40 40 0 40 0 0 40 0 40 40 0 40 0 0 -40 0 -40 120 0
120 0 0 -40 0 -40 40 0 40 0 0 40 0 40 40 0 40 0 0 -40 0 -40 -40 0 -40 0 0
-40 0 -40 120 0 120 0 0 -40 0 -40 -40 0 -40 0 0 -40 0 -40 40 0 40 0 0 -40 0
-40 -40 0 -40 0 0 40 0 40 -40 0 -40 0 0 40 0 40 -40 0 -40 0 0 -40 0 -40 -40
0 -40 0 0 -40 0 -40 -40 0 -40 0 0 40 0 40 -40 0 -40 0 0 -40 0 -40 -40 0 -40
0 0 -40 0 -40 -40 0 -40 0 0 40 0 40 -40 0 -40 0 0 -40 0 -40 -40 0 -40 0 0
40 0 40 -360 0 -360 0 0 -40 0 -40 -40 0 -40 0 0 40 0 40 -40 0 -40 0 0 -40 0
-40 -40 0 -40 0 0 40 0 40 -40 0 -40 0 0 -40 0 -40 -40 0 -40 0 0 40 0 40
-120 0 -120 0 0 -40 0 -40 -40 0 -40 0 0 -40 0 -40 -40 0 -40 0 0 -120 0 -120
40 0 40 0 0 -40 0 -40 40 0 40 0 0 40 0 40 200 0 200 0 0 -40 0 -40 -120 0
-120 0 0 -40 0 -40 -40 0 -40 0 0 -40 0 -40 -40 0 -40 0 0 -40 0 -40 40 0 40
0 0 -40 0 -40 120 0 120 0 0 40 0 40 40 0 40 0 0 -40 0 -40 -40 0 -40 0 0 -40
0 -40 200 0 200 0 0 -40 0 -40 40 0 40 0 0 40 0 40 40 0 40 0 0 40 0 40 40 0
40 0 0 -40 0 -40 40 0 40 0 0 40 0 40 40 0 40 0 0 40 0 40 40 0 40 0 0 40 0
40 -40 0 -40 0 0 40 0 40 40 0 40 0 0 40 0 40 40 0 40 0 0 40 0 40 40 0 40 0
0 -40 0 -40 40 0 40 0 0 -40 0 -40 40 0 40 0 0 -280 0 -280 40 0 40 0 0 -120
0 -120 40 0 40 0 0 -40 0 -40 40 0 40 0 0 -40 0 -40 40 0 40 0 0 -40 0 -40
-40 0 -40 0 0 40 0 40 -40 0 -40 0 0 40 0 40 -40 0 -40 0 0 -40 0 -40 -40 0
-40 0 0 -40 0 -40 -120 0 -120 0 0 -40 0 -40 -40 0 -40 0 0 40 0 40 -80 0 -80
0 0 -40 0 -40 -40 0 -40 0 0 -80 0 -80 40 0 40 0 0 -40 0 -40 -80 0 -80 0 0
-40 0 -40 -80 0 -80 0 0 -40 0 -40 -120 0 -120 0 0 -40 0 -40 -40 0 -40 0 0
-200 0 -200 40 0 40 0 0 40 0 40 120 0 120 0 0 40 0 40 120 0 120 0 0 40 0 40
120 0 120 0 0 -40 0 -40 40 0 40 0 0 -40 0 -40 40 0 40 0 0 40 0 40 40 0 40 0
0 -40 0 -40 40 0 40 0 0 40 0 40 40 0 40 0 0 -40 0 -40 -40 0 -40 0 0 -40 0
-40 -200 0 -200 0 0 -40 0 -40 -40 0 -40 0 0 -40 0 -40 40 0 40 0 0 -40 0 -40
80 0 80 0 0 -40 0 -40 80 0 80 0 0 40 0 40 40 0 40 0 0 -40 0 -40 40 0 40 0 0
40 0 40 120 0 120 0 0 40 0 40 40 0 40 0 0 40 0 40 40 0 40 0 0 40 0 40 40 0
40 0 0 40 0 40 40 0 40 0 0 -40 0 -40 -40 0 -40 0 0 -40 0 -40 40 0 40 0 0
-40 0 -40 -40 0 -40 0 0 40 0 40 -40 0 -40 0 0 -40 0 -40 -40 0 -40 0 0 -40 0
-40 40 0 40 0 0 -40 0 -40 -40 0 -40 0 0 -40 0 -40 40 0 40 0 0 -40 0 -40 -40
0 -40 0 0 40 0 40 -40 0 -40 0 0 -40 0 -40 -40 0 -40 0 0 -40 0 -40 -40 0 -40
0 0 40 0 40 -40 0 -40 0 0 -80 0 -80 -240 0 -240 0 0 -40 0 -40 -40 0 -40 0 0
40 0 40 -40 0 -40 0 0 -40 0 -40 -40 0 -40 0 0 40 0 40 -40 0 -40 0 0 -40 0
-40 -40 0 -40 0 0 40 0 40 -40 0 -40 0 0 -40 0 -40 -40 0 -40 0 0 40 0 40
-120 0 -120 0 0 40 0 40 -40 0 -40 0 0 40 0 40 -40 0 -40 0 0 40 0 40 40 0 40
0 0 40 0 40 -40 0 -40 0 0 40 0 40 -40 0 -40 0 0 -40 0 -40 -40 0 -40 0 0 40
0 40 -40 0 -40 0 0 -40 0 -40 -40 0 -40 0 0 40 0 40 -40 0 -40 0 0 120 0 120
-40 0 -40 0 0 40 0 40 40 0 40 0 0 40 0 40 -40 0 -40 0 0 40 0 40 40 0 40 0 0
40 0 40 -40 0 -40 0 0 40 0 40 -40 0 -40 0 0 -40 0 -40 -80 0 -80 0 0 40 0 40
-40 0 -40 0 0 40 0 40 -40 0 -40 0 0 160 0 160 -40 0 -40 0 0 440 0 440 40 0
40 0 0 80 0 80 -40 0 -40 0 0 80 0 80 40 0 40 0 0 -40 0 -40 40 0 40 0 0 -40
0 -40 40 0 40 0 0 -40 0 -40 40 0 40 0 0 -40 0 -40 40 0 40 0 0 480 0 480 80
0 80 0 0 40 0 40 40 0 40 0 0 40 0 40 40 0 40 0 0 40 0 40 40 0 40 0 0 40 0
40 80 0 80 0 0 80 0 80 40 0 40 0 0 40 0 40 40 0 40 0 0 40 0 40 120 0 120 0
0 40 0 40 40 0 40 0 0 -40z m-4880 -80 l0 -40 -40 0 -40 0 0 40 0 40 40 0 40
0 0 -40z m320 0 l0 -40 -40 0 -40 0 0 40 0 40 40 0 40 0 0 -40z m-320 -160 l0
-40 -40 0 -40 0 0 40 0 40 40 0 40 0 0 -40z m4320 0 l0 -40 -40 0 -40 0 0 40
0 40 40 0 40 0 0 -40z m-4320 -160 l0 -40 -40 0 -40 0 0 40 0 40 40 0 40 0 0
-40z m960 0 l0 -40 -40 0 -40 0 0 40 0 40 40 0 40 0 0 -40z m5440 0 l0 -40
-40 0 -40 0 0 40 0 40 40 0 40 0 0 -40z m160 -160 l0 -40 -40 0 -40 0 0 40 0
40 40 0 40 0 0 -40z m-6400 -320 l0 -40 -40 0 -40 0 0 40 0 40 40 0 40 0 0
-40z m160 -160 l0 -40 -40 0 -40 0 0 40 0 40 40 0 40 0 0 -40z m0 -160 l0 -40
-40 0 -40 0 0 -40 0 -40 40 0 40 0 0 -40 0 -40 -40 0 -40 0 0 -40 0 -40 40 0
40 0 0 -40 0 -40 -40 0 -40 0 0 40 0 40 -40 0 -40 0 0 40 0 40 -40 0 -40 0 0
40 0 40 40 0 40 0 0 40 0 40 40 0 40 0 0 40 0 40 40 0 40 0 0 -40z m160 -160
l0 -40 -40 0 -40 0 0 40 0 40 40 0 40 0 0 -40z m320 0 l0 -40 -40 0 -40 0 0
40 0 40 40 0 40 0 0 -40z m5520 -80 l0 -40 -40 0 -40 0 0 40 0 40 40 0 40 0 0
-40z m-5840 -80 l0 -40 -40 0 -40 0 0 40 0 40 40 0 40 0 0 -40z m320 0 l0 -40
-40 0 -40 0 0 40 0 40 40 0 40 0 0 -40z m-480 -160 l0 -40 -40 0 -40 0 0 40 0
40 40 0 40 0 0 -40z m160 0 l0 -40 -40 0 -40 0 0 40 0 40 40 0 40 0 0 -40z
m5920 0 l0 -40 -40 0 -40 0 0 40 0 40 40 0 40 0 0 -40z m800 0 l0 -40 40 0 40
0 0 -40 0 -40 -40 0 -40 0 0 -40 0 -40 -40 0 -40 0 0 -40 0 -40 40 0 40 0 0
-40 0 -40 -40 0 -40 0 0 40 0 40 -40 0 -40 0 0 -40 0 -40 -40 0 -40 0 0 -40 0
-40 40 0 40 0 0 -40 0 -40 -40 0 -40 0 0 -40 0 -40 40 0 40 0 0 -40 0 -40 -40
0 -40 0 0 40 0 40 -40 0 -40 0 0 -40 0 -40 -40 0 -40 0 0 -40 0 -40 40 0 40 0
0 -40 0 -40 -40 0 -40 0 0 40 0 40 -40 0 -40 0 0 -40 0 -40 -120 0 -120 0 0
-40 0 -40 40 0 40 0 0 -40 0 -40 -40 0 -40 0 0 -40 0 -40 40 0 40 0 0 -40 0
-40 -40 0 -40 0 0 40 0 40 -40 0 -40 0 0 40 0 40 -40 0 -40 0 0 40 0 40 40 0
40 0 0 40 0 40 -40 0 -40 0 0 40 0 40 -40 0 -40 0 0 -40 0 -40 -40 0 -40 0 0
40 0 40 40 0 40 0 0 40 0 40 -40 0 -40 0 0 40 0 40 40 0 40 0 0 40 0 40 -40 0
-40 0 0 40 0 40 40 0 40 0 0 40 0 40 -40 0 -40 0 0 40 0 40 40 0 40 0 0 40 0
40 -40 0 -40 0 0 40 0 40 40 0 40 0 0 -40 0 -40 40 0 40 0 0 40 0 40 40 0 40
0 0 -40 0 -40 40 0 40 0 0 40 0 40 40 0 40 0 0 -40 0 -40 40 0 40 0 0 40 0 40
40 0 40 0 0 -40 0 -40 40 0 40 0 0 40 0 40 40 0 40 0 0 -40 0 -40 40 0 40 0 0
40 0 40 40 0 40 0 0 -40 0 -40 40 0 40 0 0 40 0 40 40 0 40 0 0 40 0 40 -40 0
-40 0 0 40 0 40 40 0 40 0 0 -40z m-6720 -160 l0 -40 -40 0 -40 0 0 40 0 40
40 0 40 0 0 -40z m640 0 l0 -40 -40 0 -40 0 0 40 0 40 40 0 40 0 0 -40z m-800
-160 l0 -40 -40 0 -40 0 0 40 0 40 40 0 40 0 0 -40z m160 0 l0 -40 40 0 40 0
0 40 0 40 40 0 40 0 0 -40 0 -40 -40 0 -40 0 0 -40 0 -40 -40 0 -40 0 0 -40 0
-40 -40 0 -40 0 0 40 0 40 40 0 40 0 0 40 0 40 -40 0 -40 0 0 40 0 40 40 0 40
0 0 -40z m640 -160 l0 -40 -40 0 -40 0 0 40 0 40 40 0 40 0 0 -40z m160 0 l0
-40 -40 0 -40 0 0 40 0 40 40 0 40 0 0 -40z m160 0 l0 -40 -40 0 -40 0 0 40 0
40 40 0 40 0 0 -40z m6400 0 l0 -40 -40 0 -40 0 0 40 0 40 40 0 40 0 0 -40z
m-7360 -160 l0 -40 -40 0 -40 0 0 40 0 40 40 0 40 0 0 -40z m640 0 l0 -40 -40
0 -40 0 0 40 0 40 40 0 40 0 0 -40z m6640 -40 l0 -80 40 0 40 0 0 -40 0 -40
-40 0 -40 0 0 40 0 40 -40 0 -40 0 0 80 0 80 40 0 40 0 0 -80z m-6320 -120 l0
-40 -40 0 -40 0 0 40 0 40 40 0 40 0 0 -40z m160 -160 l0 -40 -40 0 -40 0 0
40 0 40 40 0 40 0 0 -40z m5120 0 l0 -40 -40 0 -40 0 0 40 0 40 40 0 40 0 0
-40z m-6240 -160 l0 -40 40 0 40 0 0 -40 0 -40 40 0 40 0 0 40 0 40 40 0 40 0
0 40 0 40 40 0 40 0 0 -40 0 -40 -40 0 -40 0 0 -40 0 -40 40 0 40 0 0 -40 0
-40 -40 0 -40 0 0 40 0 40 -40 0 -40 0 0 -40 0 -40 -40 0 -40 0 0 40 0 40 -40
0 -40 0 0 -40 0 -40 -40 0 -40 0 0 40 0 40 -40 0 -40 0 0 40 0 40 40 0 40 0 0
40 0 40 40 0 40 0 0 -40z m4880 -80 l0 -40 -40 0 -40 0 0 40 0 40 40 0 40 0 0
-40z m-3760 -80 l0 -40 -40 0 -40 0 0 40 0 40 40 0 40 0 0 -40z m160 0 l0 -40
-40 0 -40 0 0 40 0 40 40 0 40 0 0 -40z m160 0 l0 -40 -40 0 -40 0 0 40 0 40
40 0 40 0 0 -40z m3200 0 l0 -40 -40 0 -40 0 0 40 0 40 40 0 40 0 0 -40z
m-4320 -160 l0 -40 -40 0 -40 0 0 -40 0 -40 40 0 40 0 0 -40 0 -40 -40 0 -40
0 0 40 0 40 -40 0 -40 0 0 40 0 40 40 0 40 0 0 40 0 40 40 0 40 0 0 -40z
m1440 -160 l0 -40 -40 0 -40 0 0 -40 0 -40 40 0 40 0 0 -40 0 -40 -40 0 -40 0
0 40 0 40 -40 0 -40 0 0 40 0 40 40 0 40 0 0 40 0 40 40 0 40 0 0 -40z m160
-160 l0 -40 -40 0 -40 0 0 40 0 40 40 0 40 0 0 -40z m4000 -160 l0 -40 -40 0
-40 0 0 40 0 40 40 0 40 0 0 -40z m-3680 -160 l0 -40 -40 0 -40 0 0 40 0 40
40 0 40 0 0 -40z m-1920 -320 l0 -40 -40 0 -40 0 0 40 0 40 40 0 40 0 0 -40z
m3440 -80 l0 -40 40 0 40 0 0 -80 0 -80 40 0 40 0 0 -80 0 -80 80 0 80 0 0
-80 0 -80 40 0 40 0 0 -40 0 -40 40 0 40 0 0 40 0 40 40 0 40 0 0 -40 0 -40
40 0 40 0 0 -40 0 -40 40 0 40 0 0 -40 0 -40 -40 0 -40 0 0 40 0 40 -40 0 -40
0 0 -40 0 -40 -40 0 -40 0 0 -40 0 -40 40 0 40 0 0 -40 0 -40 40 0 40 0 0 40
0 40 40 0 40 0 0 -40 0 -40 40 0 40 0 0 40 0 40 40 0 40 0 0 -40 0 -40 -40 0
-40 0 0 -40 0 -40 40 0 40 0 0 -40 0 -40 -40 0 -40 0 0 40 0 40 -40 0 -40 0 0
-40 0 -40 -40 0 -40 0 0 40 0 40 -40 0 -40 0 0 40 0 40 -40 0 -40 0 0 40 0 40
-40 0 -40 0 0 -40 0 -40 -40 0 -40 0 0 40 0 40 -40 0 -40 0 0 40 0 40 -80 0
-80 0 0 80 0 80 -40 0 -40 0 0 40 0 40 -40 0 -40 0 0 200 0 200 -40 0 -40 0 0
80 0 80 80 0 80 0 0 -40z m-3440 -240 l0 -40 -40 0 -40 0 0 40 0 40 40 0 40 0
0 -40z m160 0 l0 -40 -40 0 -40 0 0 40 0 40 40 0 40 0 0 -40z m960 0 l0 -40
-40 0 -40 0 0 40 0 40 40 0 40 0 0 -40z m320 -320 l0 -40 -40 0 -40 0 0 40 0
40 40 0 40 0 0 -40z m5280 0 l0 -40 -40 0 -40 0 0 40 0 40 40 0 40 0 0 -40z
m320 0 l0 -40 40 0 40 0 0 -40 0 -40 120 0 120 0 0 -40 0 -40 40 0 40 0 0 -40
0 -40 120 0 120 0 0 -40 0 -40 40 0 40 0 0 -40 0 -40 80 0 80 0 0 -40 0 -40
40 0 40 0 0 -40 0 -40 80 0 80 0 0 -40 0 -40 80 0 80 0 0 -40 0 -40 80 0 80 0
0 -40 0 -40 40 0 40 0 0 -40 0 -40 -40 0 -40 0 0 -40 0 -40 40 0 40 0 0 -40 0
-40 40 0 40 0 0 -40 0 -40 40 0 40 0 0 -40 0 -40 -40 0 -40 0 0 -40 0 -40 -40
0 -40 0 0 -40 0 -40 40 0 40 0 0 -40 0 -40 -40 0 -40 0 0 40 0 40 -40 0 -40 0
0 -40 0 -40 -40 0 -40 0 0 40 0 40 40 0 40 0 0 40 0 40 40 0 40 0 0 40 0 40
40 0 40 0 0 40 0 40 -40 0 -40 0 0 40 0 40 -40 0 -40 0 0 -40 0 -40 -40 0 -40
0 0 40 0 40 40 0 40 0 0 40 0 40 -40 0 -40 0 0 40 0 40 40 0 40 0 0 40 0 40
-120 0 -120 0 0 40 0 40 -40 0 -40 0 0 -40 0 -40 -40 0 -40 0 0 40 0 40 -40 0
-40 0 0 -40 0 -40 -40 0 -40 0 0 40 0 40 40 0 40 0 0 40 0 40 -40 0 -40 0 0
40 0 40 -40 0 -40 0 0 -40 0 -40 -40 0 -40 0 0 40 0 40 40 0 40 0 0 40 0 40
-40 0 -40 0 0 40 0 40 -40 0 -40 0 0 -40 0 -40 -40 0 -40 0 0 40 0 40 -40 0
-40 0 0 -40 0 -40 -40 0 -40 0 0 -40 0 -40 -40 0 -40 0 0 -40 0 -40 -40 0 -40
0 0 40 0 40 40 0 40 0 0 40 0 40 -40 0 -40 0 0 40 0 40 -40 0 -40 0 0 40 0 40
-40 0 -40 0 0 40 0 40 -40 0 -40 0 0 -40 0 -40 -40 0 -40 0 0 40 0 40 40 0 40
0 0 40 0 40 -120 0 -120 0 0 -40 0 -40 -40 0 -40 0 0 -40 0 -40 -40 0 -40 0 0
40 0 40 40 0 40 0 0 40 0 40 -40 0 -40 0 0 40 0 40 40 0 40 0 0 -40 0 -40 40
0 40 0 0 40 0 40 40 0 40 0 0 40 0 40 -40 0 -40 0 0 40 0 40 120 0 120 0 0
-40z m-3920 -400 l0 -40 40 0 40 0 0 -40 0 -40 -40 0 -40 0 0 -40 0 -40 40 0
40 0 0 -40 0 -40 -40 0 -40 0 0 40 0 40 -40 0 -40 0 0 40 0 40 -40 0 -40 0 0
40 0 40 40 0 40 0 0 40 0 40 40 0 40 0 0 -40z m-2640 -80 l0 -40 -40 0 -40 0
0 40 0 40 40 0 40 0 0 -40z m4000 0 l0 -40 -40 0 -40 0 0 40 0 40 40 0 40 0 0
-40z m160 0 l0 -40 -40 0 -40 0 0 40 0 40 40 0 40 0 0 -40z m2080 0 l0 -40 40
0 40 0 0 40 0 40 40 0 40 0 0 -40 0 -40 -40 0 -40 0 0 -40 0 -40 40 0 40 0 0
-40 0 -40 -40 0 -40 0 0 40 0 40 -40 0 -40 0 0 -40 0 -40 -40 0 -40 0 0 40 0
40 40 0 40 0 0 40 0 40 -40 0 -40 0 0 40 0 40 40 0 40 0 0 -40z m960 -160 l0
-40 -40 0 -40 0 0 40 0 40 40 0 40 0 0 -40z m-3760 -80 l0 -40 80 0 80 0 0
-80 0 -80 40 0 40 0 0 -40 0 -40 -40 0 -40 0 0 40 0 40 -40 0 -40 0 0 40 0 40
-40 0 -40 0 0 40 0 40 -40 0 -40 0 0 -40 0 -40 -40 0 -40 0 0 40 0 40 40 0 40
0 0 40 0 40 40 0 40 0 0 -40z m-560 -80 l0 -40 -40 0 -40 0 0 40 0 40 40 0 40
0 0 -40z m3200 0 l0 -40 -40 0 -40 0 0 40 0 40 40 0 40 0 0 -40z m160 0 l0
-40 -40 0 -40 0 0 40 0 40 40 0 40 0 0 -40z m160 0 l0 -40 -40 0 -40 0 0 40 0
40 40 0 40 0 0 -40z m480 0 l0 -40 -40 0 -40 0 0 40 0 40 40 0 40 0 0 -40z
m-6160 -80 l0 -40 40 0 40 0 0 -40 0 -40 -120 0 -120 0 0 -40 0 -40 -40 0 -40
0 0 -40 0 -40 -40 0 -40 0 0 -40 0 -40 -40 0 -40 0 0 -40 0 -40 -40 0 -40 0 0
-40 0 -40 40 0 40 0 0 -40 0 -40 -120 0 -120 0 0 -40 0 -40 -40 0 -40 0 0 -40
0 -40 -40 0 -40 0 0 -40 0 -40 40 0 40 0 0 -40 0 -40 -40 0 -40 0 0 -40 0 -40
-40 0 -40 0 0 -40 0 -40 -40 0 -40 0 0 -40 0 -40 -40 0 -40 0 0 -40 0 -40 -40
0 -40 0 0 40 0 40 40 0 40 0 0 40 0 40 -40 0 -40 0 0 40 0 40 -40 0 -40 0 0
40 0 40 40 0 40 0 0 40 0 40 40 0 40 0 0 40 0 40 40 0 40 0 0 40 0 40 40 0 40
0 0 40 0 40 40 0 40 0 0 40 0 40 40 0 40 0 0 40 0 40 -40 0 -40 0 0 40 0 40
40 0 40 0 0 -40 0 -40 40 0 40 0 0 40 0 40 120 0 120 0 0 40 0 40 -40 0 -40 0
0 40 0 40 40 0 40 0 0 -40 0 -40 40 0 40 0 0 40 0 40 40 0 40 0 0 40 0 40 -40
0 -40 0 0 40 0 40 40 0 40 0 0 -40 0 -40 40 0 40 0 0 40 0 40 40 0 40 0 0 40
0 40 40 0 40 0 0 -40z m480 0 l0 -40 40 0 40 0 0 -40 0 -40 40 0 40 0 0 40 0
40 40 0 40 0 0 -40 0 -40 -40 0 -40 0 0 -40 0 -40 40 0 40 0 0 -40 0 -40 -40
0 -40 0 0 -40 0 -40 40 0 40 0 0 -40 0 -40 -40 0 -40 0 0 40 0 40 -40 0 -40 0
0 -40 0 -40 -40 0 -40 0 0 -40 0 -40 40 0 40 0 0 -40 0 -40 -40 0 -40 0 0 -40
0 -40 -40 0 -40 0 0 -40 0 -40 -40 0 -40 0 0 -40 0 -40 40 0 40 0 0 -40 0 -40
-40 0 -40 0 0 40 0 40 -40 0 -40 0 0 -40 0 -40 -40 0 -40 0 0 40 0 40 40 0 40
0 0 40 0 40 -40 0 -40 0 0 40 0 40 -40 0 -40 0 0 -40 0 -40 -40 0 -40 0 0 -40
0 -40 40 0 40 0 0 -40 0 -40 -120 0 -120 0 0 -40 0 -40 40 0 40 0 0 -40 0 -40
40 0 40 0 0 40 0 40 40 0 40 0 0 -40 0 -40 -40 0 -40 0 0 -40 0 -40 -40 0 -40
0 0 -40 0 -40 -120 0 -120 0 0 -40 0 -40 40 0 40 0 0 -40 0 -40 -40 0 -40 0 0
-40 0 -40 -40 0 -40 0 0 -40 0 -40 -40 0 -40 0 0 -40 0 -40 -40 0 -40 0 0 -40
0 -40 -40 0 -40 0 0 -40 0 -40 40 0 40 0 0 -40 0 -40 -40 0 -40 0 0 -40 0 -40
-40 0 -40 0 0 -40 0 -40 -40 0 -40 0 0 -40 0 -40 -40 0 -40 0 0 -40 0 -40 -40
0 -40 0 0 40 0 40 40 0 40 0 0 40 0 40 -40 0 -40 0 0 40 0 40 120 0 120 0 0
40 0 40 -40 0 -40 0 0 40 0 40 40 0 40 0 0 40 0 40 40 0 40 0 0 40 0 40 40 0
40 0 0 40 0 40 -40 0 -40 0 0 40 0 40 40 0 40 0 0 40 0 40 40 0 40 0 0 40 0
40 40 0 40 0 0 40 0 40 -40 0 -40 0 0 40 0 40 40 0 40 0 0 40 0 40 40 0 40 0
0 40 0 40 40 0 40 0 0 40 0 40 40 0 40 0 0 40 0 40 -40 0 -40 0 0 40 0 40 40
0 40 0 0 -40 0 -40 40 0 40 0 0 40 0 40 40 0 40 0 0 40 0 40 40 0 40 0 0 40 0
40 -40 0 -40 0 0 40 0 40 40 0 40 0 0 40 0 40 -40 0 -40 0 0 40 0 40 40 0 40
0 0 40 0 40 40 0 40 0 0 40 0 40 80 0 80 0 0 80 0 80 40 0 40 0 0 40 0 40 40
0 40 0 0 -40z m8320 0 l0 -40 40 0 40 0 0 -40 0 -40 40 0 40 0 0 40 0 40 40 0
40 0 0 -40 0 -40 40 0 40 0 0 40 0 40 40 0 40 0 0 -40 0 -40 40 0 40 0 0 -40
0 -40 40 0 40 0 0 -40 0 -40 -40 0 -40 0 0 -40 0 -40 -40 0 -40 0 0 -40 0 -40
40 0 40 0 0 -40 0 -40 40 0 40 0 0 -40 0 -40 -40 0 -40 0 0 -40 0 -40 40 0 40
0 0 -40 0 -40 -40 0 -40 0 0 -40 0 -40 40 0 40 0 0 -40 0 -40 -40 0 -40 0 0
40 0 40 -40 0 -40 0 0 -40 0 -40 -40 0 -40 0 0 40 0 40 40 0 40 0 0 40 0 40
-40 0 -40 0 0 40 0 40 40 0 40 0 0 40 0 40 -40 0 -40 0 0 40 0 40 -40 0 -40 0
0 -40 0 -40 -40 0 -40 0 0 40 0 40 40 0 40 0 0 40 0 40 -40 0 -40 0 0 40 0 40
40 0 40 0 0 40 0 40 -40 0 -40 0 0 40 0 40 -40 0 -40 0 0 -40 0 -40 -40 0 -40
0 0 -40 0 -40 40 0 40 0 0 -40 0 -40 -40 0 -40 0 0 40 0 40 -40 0 -40 0 0 -40
0 -40 -40 0 -40 0 0 -40 0 -40 40 0 40 0 0 -40 0 -40 -40 0 -40 0 0 40 0 40
-40 0 -40 0 0 -40 0 -40 -40 0 -40 0 0 40 0 40 -40 0 -40 0 0 40 0 40 40 0 40
0 0 40 0 40 -40 0 -40 0 0 40 0 40 40 0 40 0 0 40 0 40 40 0 40 0 0 40 0 40
40 0 40 0 0 40 0 40 40 0 40 0 0 40 0 40 40 0 40 0 0 -40z m-6480 -80 l0 -40
40 0 40 0 0 -40 0 -40 120 0 120 0 0 40 0 40 -40 0 -40 0 0 40 0 40 80 0 80 0
0 -40 0 -40 40 0 40 0 0 -80 0 -80 -40 0 -40 0 0 -40 0 -40 40 0 40 0 0 -40 0
-40 -40 0 -40 0 0 40 0 40 -40 0 -40 0 0 -40 0 -40 -40 0 -40 0 0 40 0 40 40
0 40 0 0 40 0 40 -120 0 -120 0 0 40 0 40 -40 0 -40 0 0 40 0 40 -40 0 -40 0
0 40 0 40 40 0 40 0 0 -40z m2880 0 l0 -40 -40 0 -40 0 0 40 0 40 40 0 40 0 0
-40z m320 0 l0 -40 -40 0 -40 0 0 40 0 40 40 0 40 0 0 -40z m640 0 l0 -40 -40
0 -40 0 0 40 0 40 40 0 40 0 0 -40z m640 0 l0 -40 -40 0 -40 0 0 -40 0 -40 40
0 40 0 0 -40 0 -40 -40 0 -40 0 0 40 0 40 -40 0 -40 0 0 40 0 40 40 0 40 0 0
40 0 40 40 0 40 0 0 -40z m320 0 l0 -40 -40 0 -40 0 0 40 0 40 40 0 40 0 0
-40z m-5840 -80 l0 -40 -40 0 -40 0 0 40 0 40 40 0 40 0 0 -40z m-1840 -80 l0
-40 -40 0 -40 0 0 40 0 40 40 0 40 0 0 -40z m5600 0 l0 -40 -40 0 -40 0 0 40
0 40 40 0 40 0 0 -40z m320 0 l0 -40 -40 0 -40 0 0 40 0 40 40 0 40 0 0 -40z
m160 0 l0 -40 -40 0 -40 0 0 40 0 40 40 0 40 0 0 -40z m640 0 l0 -40 -40 0
-40 0 0 40 0 40 40 0 40 0 0 -40z m-2800 -120 l0 -80 40 0 40 0 0 -80 0 -80
-40 0 -40 0 0 80 0 80 -40 0 -40 0 0 80 0 80 40 0 40 0 0 -80z m1840 -40 l0
-40 -40 0 -40 0 0 40 0 40 40 0 40 0 0 -40z m320 0 l0 -40 -40 0 -40 0 0 40 0
40 40 0 40 0 0 -40z m640 0 l0 -40 -40 0 -40 0 0 40 0 40 40 0 40 0 0 -40z
m640 0 l0 -40 -40 0 -40 0 0 40 0 40 40 0 40 0 0 -40z m960 0 l0 -40 -40 0
-40 0 0 -40 0 -40 -40 0 -40 0 0 -40 0 -40 -40 0 -40 0 0 40 0 40 40 0 40 0 0
40 0 40 40 0 40 0 0 40 0 40 40 0 40 0 0 -40z m-6480 -80 l0 -40 -40 0 -40 0
0 40 0 40 40 0 40 0 0 -40z m-2320 -80 l0 -40 -40 0 -40 0 0 40 0 40 40 0 40
0 0 -40z m1760 0 l0 -40 -40 0 -40 0 0 40 0 40 40 0 40 0 0 -40z m2080 0 l0
-40 -40 0 -40 0 0 40 0 40 40 0 40 0 0 -40z m1600 0 l0 -40 -40 0 -40 0 0 -40
0 -40 -40 0 -40 0 0 -40 0 -40 -40 0 -40 0 0 40 0 40 40 0 40 0 0 40 0 40 40
0 40 0 0 40 0 40 40 0 40 0 0 -40z m480 0 l0 -40 40 0 40 0 0 40 0 40 40 0 40
0 0 -40 0 -40 -40 0 -40 0 0 -40 0 -40 40 0 40 0 0 -40 0 -40 40 0 40 0 0 40
0 40 40 0 40 0 0 -40 0 -40 -40 0 -40 0 0 -40 0 -40 -40 0 -40 0 0 -40 0 -40
-40 0 -40 0 0 40 0 40 40 0 40 0 0 40 0 40 -40 0 -40 0 0 40 0 40 -40 0 -40 0
0 -40 0 -40 -40 0 -40 0 0 -40 0 -40 40 0 40 0 0 -40 0 -40 -40 0 -40 0 0 40
0 40 -40 0 -40 0 0 -40 0 -40 -40 0 -40 0 0 40 0 40 40 0 40 0 0 40 0 40 40 0
40 0 0 40 0 40 40 0 40 0 0 40 0 40 -40 0 -40 0 0 40 0 40 40 0 40 0 0 -40z
m480 0 l0 -40 -40 0 -40 0 0 40 0 40 40 0 40 0 0 -40z m320 0 l0 -40 -40 0
-40 0 0 40 0 40 40 0 40 0 0 -40z m160 0 l0 -40 -40 0 -40 0 0 40 0 40 40 0
40 0 0 -40z m320 0 l0 -40 -40 0 -40 0 0 40 0 40 40 0 40 0 0 -40z m640 0 l0
-40 -40 0 -40 0 0 40 0 40 40 0 40 0 0 -40z m160 0 l0 -40 -40 0 -40 0 0 40 0
40 40 0 40 0 0 -40z m1920 0 l0 -40 -40 0 -40 0 0 40 0 40 40 0 40 0 0 -40z
m-7040 -160 l0 -40 -40 0 -40 0 0 -40 0 -40 -40 0 -40 0 0 40 0 40 40 0 40 0
0 40 0 40 40 0 40 0 0 -40z m1280 0 l0 -40 40 0 40 0 0 -80 0 -80 -80 0 -80 0
0 40 0 40 -40 0 -40 0 0 40 0 40 40 0 40 0 0 40 0 40 40 0 40 0 0 -40z m320 0
l0 -40 -40 0 -40 0 0 40 0 40 40 0 40 0 0 -40z m3360 0 l0 -40 -40 0 -40 0 0
40 0 40 40 0 40 0 0 -40z m480 0 l0 -40 40 0 40 0 0 40 0 40 40 0 40 0 0 -40
0 -40 -40 0 -40 0 0 -40 0 -40 40 0 40 0 0 -40 0 -40 -40 0 -40 0 0 40 0 40
-40 0 -40 0 0 -40 0 -40 -40 0 -40 0 0 40 0 40 40 0 40 0 0 40 0 40 -40 0 -40
0 0 40 0 40 40 0 40 0 0 -40z m1440 0 l0 -40 -40 0 -40 0 0 40 0 40 40 0 40 0
0 -40z m-4640 -160 l0 -40 -40 0 -40 0 0 40 0 40 40 0 40 0 0 -40z m160 0 l0
-40 -40 0 -40 0 0 40 0 40 40 0 40 0 0 -40z m1120 0 l0 -40 -40 0 -40 0 0 40
0 40 40 0 40 0 0 -40z m640 0 l0 -40 -40 0 -40 0 0 40 0 40 40 0 40 0 0 -40z
m160 0 l0 -40 -40 0 -40 0 0 40 0 40 40 0 40 0 0 -40z m2080 0 l0 -40 -40 0
-40 0 0 40 0 40 40 0 40 0 0 -40z m320 0 l0 -40 40 0 40 0 0 -40 0 -40 40 0
40 0 0 -40 0 -40 -40 0 -40 0 0 40 0 40 -40 0 -40 0 0 40 0 40 -40 0 -40 0 0
40 0 40 40 0 40 0 0 -40z m-7280 -80 l0 -40 40 0 40 0 0 -40 0 -40 40 0 40 0
0 40 0 40 40 0 40 0 0 -40 0 -40 40 0 40 0 0 40 0 40 40 0 40 0 0 40 0 40 40
0 40 0 0 -40 0 -40 -40 0 -40 0 0 -40 0 -40 -40 0 -40 0 0 -40 0 -40 -40 0
-40 0 0 -40 0 -40 -40 0 -40 0 0 -40 0 -40 40 0 40 0 0 -40 0 -40 -40 0 -40 0
0 40 0 40 -40 0 -40 0 0 40 0 40 40 0 40 0 0 40 0 40 -40 0 -40 0 0 40 0 40
-40 0 -40 0 0 40 0 40 -40 0 -40 0 0 40 0 40 40 0 40 0 0 -40z m1600 0 l0 -40
40 0 40 0 0 -40 0 -40 40 0 40 0 0 -40 0 -40 -40 0 -40 0 0 -40 0 -40 -40 0
-40 0 0 40 0 40 -40 0 -40 0 0 -40 0 -40 -40 0 -40 0 0 40 0 40 40 0 40 0 0
40 0 40 40 0 40 0 0 40 0 40 -40 0 -40 0 0 40 0 40 40 0 40 0 0 -40z m-2480
-80 l0 -40 -40 0 -40 0 0 -40 0 -40 40 0 40 0 0 -40 0 -40 40 0 40 0 0 -40 0
-40 -40 0 -40 0 0 -40 0 -40 40 0 40 0 0 -40 0 -40 -40 0 -40 0 0 -40 0 -40
-40 0 -40 0 0 -40 0 -40 -40 0 -40 0 0 -40 0 -40 40 0 40 0 0 -40 0 -40 40 0
40 0 0 -40 0 -40 40 0 40 0 0 -40 0 -40 40 0 40 0 0 -40 0 -40 40 0 40 0 0
-40 0 -40 40 0 40 0 0 -40 0 -40 40 0 40 0 0 -40 0 -40 40 0 40 0 0 -40 0 -40
40 0 40 0 0 40 0 40 40 0 40 0 0 40 0 40 40 0 40 0 0 -40 0 -40 40 0 40 0 0
-40 0 -40 40 0 40 0 0 40 0 40 40 0 40 0 0 -40 0 -40 -40 0 -40 0 0 -40 0 -40
40 0 40 0 0 -40 0 -40 -40 0 -40 0 0 -40 0 -40 40 0 40 0 0 -40 0 -40 40 0 40
0 0 40 0 40 40 0 40 0 0 40 0 40 -40 0 -40 0 0 40 0 40 40 0 40 0 0 40 0 40
-40 0 -40 0 0 40 0 40 40 0 40 0 0 -40 0 -40 40 0 40 0 0 -40 0 -40 -40 0 -40
0 0 -40 0 -40 40 0 40 0 0 -40 0 -40 -40 0 -40 0 0 -40 0 -40 40 0 40 0 0 -40
0 -40 40 0 40 0 0 -40 0 -40 40 0 40 0 0 40 0 40 40 0 40 0 0 40 0 40 40 0 40
0 0 40 0 40 -40 0 -40 0 0 40 0 40 40 0 40 0 0 40 0 40 -40 0 -40 0 0 40 0 40
40 0 40 0 0 -40 0 -40 40 0 40 0 0 -40 0 -40 40 0 40 0 0 -40 0 -40 -40 0 -40
0 0 -40 0 -40 -40 0 -40 0 0 -40 0 -40 -40 0 -40 0 0 -40 0 -40 40 0 40 0 0
-40 0 -40 40 0 40 0 0 -40 0 -40 40 0 40 0 0 40 0 40 40 0 40 0 0 -40 0 -40
40 0 40 0 0 40 0 40 40 0 40 0 0 -40 0 -40 -40 0 -40 0 0 -40 0 -40 -40 0 -40
0 0 -40 0 -40 -40 0 -40 0 0 -40 0 -40 40 0 40 0 0 -40 0 -40 -40 0 -40 0 0
40 0 40 -40 0 -40 0 0 -40 0 -40 -40 0 -40 0 0 -40 0 -40 40 0 40 0 0 -40 0
-40 -40 0 -40 0 0 -40 0 -40 40 0 40 0 0 -40 0 -40 -40 0 -40 0 0 -40 0 -40
40 0 40 0 0 -40 0 -40 40 0 40 0 0 40 0 40 40 0 40 0 0 40 0 40 -40 0 -40 0 0
40 0 40 40 0 40 0 0 -40 0 -40 40 0 40 0 0 40 0 40 40 0 40 0 0 -40 0 -40 -40
0 -40 0 0 -40 0 -40 -40 0 -40 0 0 -40 0 -40 -40 0 -40 0 0 -40 0 -40 40 0 40
0 0 -40 0 -40 -40 0 -40 0 0 40 0 40 -40 0 -40 0 0 -40 0 -40 -40 0 -40 0 0
-40 0 -40 40 0 40 0 0 -40 0 -40 40 0 40 0 0 40 0 40 40 0 40 0 0 -40 0 -40
-40 0 -40 0 0 -40 0 -40 40 0 40 0 0 -40 0 -40 40 0 40 0 0 40 0 40 40 0 40 0
0 -40 0 -40 120 0 120 0 0 80 0 80 -80 0 -80 0 0 40 0 40 -40 0 -40 0 0 40 0
40 -40 0 -40 0 0 40 0 40 120 0 120 0 0 -40 0 -40 -40 0 -40 0 0 -40 0 -40
120 0 120 0 0 -40 0 -40 40 0 40 0 0 40 0 40 120 0 120 0 0 40 0 40 -40 0 -40
0 0 40 0 40 40 0 40 0 0 40 0 40 40 0 40 0 0 40 0 40 40 0 40 0 0 40 0 40 -40
0 -40 0 0 40 0 40 -40 0 -40 0 0 -40 0 -40 -40 0 -40 0 0 40 0 40 -40 0 -40 0
0 -40 0 -40 -40 0 -40 0 0 -40 0 -40 40 0 40 0 0 -40 0 -40 -40 0 -40 0 0 -40
0 -40 -40 0 -40 0 0 -40 0 -40 -40 0 -40 0 0 40 0 40 40 0 40 0 0 40 0 40
-120 0 -120 0 0 40 0 40 40 0 40 0 0 40 0 40 -40 0 -40 0 0 40 0 40 40 0 40 0
0 40 0 40 -40 0 -40 0 0 40 0 40 40 0 40 0 0 40 0 40 40 0 40 0 0 40 0 40 40
0 40 0 0 -40 0 -40 40 0 40 0 0 -40 0 -40 120 0 120 0 0 40 0 40 -40 0 -40 0
0 40 0 40 -40 0 -40 0 0 40 0 40 -40 0 -40 0 0 40 0 40 40 0 40 0 0 40 0 40
-40 0 -40 0 0 40 0 40 120 0 120 0 0 40 0 40 40 0 40 0 0 80 0 80 -40 0 -40 0
0 80 0 80 -40 0 -40 0 0 -40 0 -40 -40 0 -40 0 0 40 0 40 -40 0 -40 0 0 40 0
40 40 0 40 0 0 40 0 40 40 0 40 0 0 40 0 40 40 0 40 0 0 -40 0 -40 40 0 40 0
0 -40 0 -40 40 0 40 0 0 40 0 40 40 0 40 0 0 -40 0 -40 40 0 40 0 0 40 0 40
40 0 40 0 0 -40 0 -40 40 0 40 0 0 40 0 40 40 0 40 0 0 40 0 40 -40 0 -40 0 0
40 0 40 -40 0 -40 0 0 -40 0 -40 -40 0 -40 0 0 40 0 40 -40 0 -40 0 0 -40 0
-40 -40 0 -40 0 0 40 0 40 -40 0 -40 0 0 40 0 40 40 0 40 0 0 -40 0 -40 40 0
40 0 0 40 0 40 40 0 40 0 0 40 0 40 -40 0 -40 0 0 40 0 40 -40 0 -40 0 0 -40
0 -40 -40 0 -40 0 0 40 0 40 40 0 40 0 0 40 0 40 -40 0 -40 0 0 40 0 40 40 0
40 0 0 40 0 40 -40 0 -40 0 0 40 0 40 40 0 40 0 0 40 0 40 -40 0 -40 0 0 40 0
40 40 0 40 0 0 40 0 40 -40 0 -40 0 0 40 0 40 40 0 40 0 0 -40 0 -40 40 0 40
0 0 40 0 40 120 0 120 0 0 -40 0 -40 40 0 40 0 0 40 0 40 40 0 40 0 0 40 0 40
40 0 40 0 0 40 0 40 40 0 40 0 0 -40 0 -40 40 0 40 0 0 40 0 40 40 0 40 0 0
40 0 40 -40 0 -40 0 0 40 0 40 40 0 40 0 0 -40 0 -40 40 0 40 0 0 40 0 40 40
0 40 0 0 -40 0 -40 -40 0 -40 0 0 -40 0 -40 40 0 40 0 0 -40 0 -40 -40 0 -40
0 0 -40 0 -40 -40 0 -40 0 0 -40 0 -40 -40 0 -40 0 0 -120 0 -120 -40 0 -40 0
0 -40 0 -40 -40 0 -40 0 0 -40 0 -40 40 0 40 0 0 -40 0 -40 -40 0 -40 0 0 -40
0 -40 -40 0 -40 0 0 -40 0 -40 -40 0 -40 0 0 -40 0 -40 40 0 40 0 0 -40 0 -40
-40 0 -40 0 0 -40 0 -40 40 0 40 0 0 -40 0 -40 -40 0 -40 0 0 -40 0 -40 40 0
40 0 0 -40 0 -40 -40 0 -40 0 0 40 0 40 -40 0 -40 0 0 -40 0 -40 -40 0 -40 0
0 -40 0 -40 40 0 40 0 0 -40 0 -40 -40 0 -40 0 0 -40 0 -40 40 0 40 0 0 -40 0
-40 -40 0 -40 0 0 -40 0 -40 40 0 40 0 0 -40 0 -40 40 0 40 0 0 40 0 40 40 0
40 0 0 40 0 40 -40 0 -40 0 0 40 0 40 40 0 40 0 0 80 0 80 80 0 80 0 0 40 0
40 -40 0 -40 0 0 40 0 40 40 0 40 0 0 40 0 40 -40 0 -40 0 0 40 0 40 40 0 40
0 0 120 0 120 40 0 40 0 0 40 0 40 40 0 40 0 0 -40 0 -40 40 0 40 0 0 40 0 40
40 0 40 0 0 40 0 40 40 0 40 0 0 40 0 40 40 0 40 0 0 -40 0 -40 40 0 40 0 0
40 0 40 40 0 40 0 0 40 0 40 -40 0 -40 0 0 40 0 40 40 0 40 0 0 -40 0 -40 40
0 40 0 0 40 0 40 40 0 40 0 0 40 0 40 -40 0 -40 0 0 40 0 40 -40 0 -40 0 0
-40 0 -40 -40 0 -40 0 0 40 0 40 40 0 40 0 0 40 0 40 40 0 40 0 0 40 0 40 40
0 40 0 0 40 0 40 -40 0 -40 0 0 40 0 40 40 0 40 0 0 -40 0 -40 40 0 40 0 0 40
0 40 40 0 40 0 0 -40 0 -40 -40 0 -40 0 0 -40 0 -40 40 0 40 0 0 -40 0 -40 40
0 40 0 0 40 0 40 40 0 40 0 0 -40 0 -40 -40 0 -40 0 0 -40 0 -40 40 0 40 0 0
-40 0 -40 -40 0 -40 0 0 40 0 40 -40 0 -40 0 0 -40 0 -40 -40 0 -40 0 0 -40 0
-40 40 0 40 0 0 -40 0 -40 40 0 40 0 0 40 0 40 40 0 40 0 0 -40 0 -40 40 0 40
0 0 40 0 40 40 0 40 0 0 -40 0 -40 40 0 40 0 0 40 0 40 40 0 40 0 0 40 0 40
-40 0 -40 0 0 40 0 40 -40 0 -40 0 0 -40 0 -40 -40 0 -40 0 0 40 0 40 40 0 40
0 0 40 0 40 -40 0 -40 0 0 40 0 40 40 0 40 0 0 -40 0 -40 40 0 40 0 0 40 0 40
40 0 40 0 0 40 0 40 -40 0 -40 0 0 40 0 40 40 0 40 0 0 -40 0 -40 40 0 40 0 0
40 0 40 40 0 40 0 0 -40 0 -40 -40 0 -40 0 0 -40 0 -40 40 0 40 0 0 -40 0 -40
40 0 40 0 0 40 0 40 40 0 40 0 0 -40 0 -40 -40 0 -40 0 0 -40 0 -40 40 0 40 0
0 -40 0 -40 -40 0 -40 0 0 -40 0 -40 40 0 40 0 0 -40 0 -40 -40 0 -40 0 0 -40
0 -40 40 0 40 0 0 -40 0 -40 -40 0 -40 0 0 40 0 40 -40 0 -40 0 0 -40 0 -40
-40 0 -40 0 0 -40 0 -40 40 0 40 0 0 -40 0 -40 40 0 40 0 0 40 0 40 40 0 40 0
0 -40 0 -40 -40 0 -40 0 0 -40 0 -40 40 0 40 0 0 -40 0 -40 40 0 40 0 0 40 0
40 40 0 40 0 0 40 0 40 -40 0 -40 0 0 40 0 40 40 0 40 0 0 -40 0 -40 40 0 40
0 0 40 0 40 40 0 40 0 0 -40 0 -40 -40 0 -40 0 0 -40 0 -40 40 0 40 0 0 -40 0
-40 -40 0 -40 0 0 -40 0 -40 40 0 40 0 0 -40 0 -40 -40 0 -40 0 0 40 0 40 -40
0 -40 0 0 -40 0 -40 -40 0 -40 0 0 40 0 40 -40 0 -40 0 0 -40 0 -40 -40 0 -40
0 0 -40 0 -40 40 0 40 0 0 -40 0 -40 -40 0 -40 0 0 40 0 40 -40 0 -40 0 0 -40
0 -40 -40 0 -40 0 0 -40 0 -40 40 0 40 0 0 -40 0 -40 40 0 40 0 0 40 0 40 40
0 40 0 0 -40 0 -40 -40 0 -40 0 0 -40 0 -40 40 0 40 0 0 -40 0 -40 -120 0
-120 0 0 -40 0 -40 40 0 40 0 0 -40 0 -40 40 0 40 0 0 40 0 40 40 0 40 0 0
-40 0 -40 -40 0 -40 0 0 -40 0 -40 40 0 40 0 0 -40 0 -40 -40 0 -40 0 0 -40 0
-40 40 0 40 0 0 -40 0 -40 -40 0 -40 0 0 -40 0 -40 -40 0 -40 0 0 -40 0 -40
-40 0 -40 0 0 -40 0 -40 40 0 40 0 0 -40 0 -40 40 0 40 0 0 40 0 40 40 0 40 0
0 -40 0 -40 -40 0 -40 0 0 -40 0 -40 -40 0 -40 0 0 40 0 40 -120 0 -120 0 0
-120 0 -120 40 0 40 0 0 -40 0 -40 40 0 40 0 0 -40 0 -40 40 0 40 0 0 40 0 40
40 0 40 0 0 -40 0 -40 -40 0 -40 0 0 -40 0 -40 -40 0 -40 0 0 40 0 40 -40 0
-40 0 0 40 0 40 -120 0 -120 0 0 40 0 40 -40 0 -40 0 0 -40 0 -40 -40 0 -40 0
0 40 0 40 -40 0 -40 0 0 -40 0 -40 -40 0 -40 0 0 -40 0 -40 -40 0 -40 0 0 -40
0 -40 -120 0 -120 0 0 -40 0 -40 40 0 40 0 0 -40 0 -40 -40 0 -40 0 0 -40 0
-40 40 0 40 0 0 -40 0 -40 -40 0 -40 0 0 -40 0 -40 40 0 40 0 0 -40 0 -40 40
0 40 0 0 40 0 40 40 0 40 0 0 -40 0 -40 -40 0 -40 0 0 -40 0 -40 40 0 40 0 0
-40 0 -40 -40 0 -40 0 0 40 0 40 -40 0 -40 0 0 -40 0 -40 -40 0 -40 0 0 40 0
40 40 0 40 0 0 40 0 40 -40 0 -40 0 0 40 0 40 -40 0 -40 0 0 -40 0 -40 -40 0
-40 0 0 -40 0 -40 40 0 40 0 0 -40 0 -40 -40 0 -40 0 0 40 0 40 -40 0 -40 0 0
-40 0 -40 -40 0 -40 0 0 40 0 40 40 0 40 0 0 40 0 40 -40 0 -40 0 0 40 0 40
-40 0 -40 0 0 -40 0 -40 -40 0 -40 0 0 -40 0 -40 40 0 40 0 0 -40 0 -40 -40 0
-40 0 0 40 0 40 -40 0 -40 0 0 -40 0 -40 -40 0 -40 0 0 40 0 40 40 0 40 0 0
40 0 40 -40 0 -40 0 0 40 0 40 40 0 40 0 0 40 0 40 -40 0 -40 0 0 40 0 40 40
0 40 0 0 40 0 40 -40 0 -40 0 0 40 0 40 40 0 40 0 0 -40 0 -40 40 0 40 0 0 40
0 40 40 0 40 0 0 40 0 40 -40 0 -40 0 0 40 0 40 -40 0 -40 0 0 -40 0 -40 -40
0 -40 0 0 40 0 40 40 0 40 0 0 40 0 40 40 0 40 0 0 40 0 40 -40 0 -40 0 0 40
0 40 -40 0 -40 0 0 40 0 40 40 0 40 0 0 -40 0 -40 40 0 40 0 0 40 0 40 40 0
40 0 0 -40 0 -40 40 0 40 0 0 40 0 40 40 0 40 0 0 40 0 40 -40 0 -40 0 0 40 0
40 40 0 40 0 0 -40 0 -40 40 0 40 0 0 40 0 40 40 0 40 0 0 40 0 40 -40 0 -40
0 0 40 0 40 -40 0 -40 0 0 -40 0 -40 -40 0 -40 0 0 40 0 40 40 0 40 0 0 40 0
40 -40 0 -40 0 0 40 0 40 40 0 40 0 0 40 0 40 -40 0 -40 0 0 40 0 40 40 0 40
0 0 40 0 40 -40 0 -40 0 0 40 0 40 40 0 40 0 0 40 0 40 -40 0 -40 0 0 40 0 40
-40 0 -40 0 0 -40 0 -40 -40 0 -40 0 0 -40 0 -40 40 0 40 0 0 -40 0 -40 -40 0
-40 0 0 -40 0 -40 40 0 40 0 0 -40 0 -40 -120 0 -120 0 0 -40 0 -40 40 0 40 0
0 -40 0 -40 -40 0 -40 0 0 -40 0 -40 40 0 40 0 0 -40 0 -40 -40 0 -40 0 0 -40
0 -40 -40 0 -40 0 0 -40 0 -40 -40 0 -40 0 0 -40 0 -40 40 0 40 0 0 -40 0 -40
-40 0 -40 0 0 -40 0 -40 40 0 40 0 0 -40 0 -40 -40 0 -40 0 0 40 0 40 -40 0
-40 0 0 -40 0 -40 -40 0 -40 0 0 -40 0 -40 40 0 40 0 0 -40 0 -40 -40 0 -40 0
0 -40 0 -40 -40 0 -40 0 0 -40 0 -40 -40 0 -40 0 0 -40 0 -40 40 0 40 0 0 -40
0 -40 -160 0 -160 0 0 -40 0 -40 80 0 80 0 0 -40 0 -40 -40 0 -40 0 0 -40 0
-40 -40 0 -40 0 0 40 0 40 -40 0 -40 0 0 40 0 40 -40 0 -40 0 0 40 0 40 -40 0
-40 0 0 40 0 40 -40 0 -40 0 0 -40 0 -40 -40 0 -40 0 0 40 0 40 -40 0 -40 0 0
-40 0 -40 -40 0 -40 0 0 -40 0 -40 40 0 40 0 0 -40 0 -40 40 0 40 0 0 -40 0
-40 -40 0 -40 0 0 40 0 40 -40 0 -40 0 0 -40 0 -40 -40 0 -40 0 0 40 0 40 -40
0 -40 0 0 -40 0 -40 -40 0 -40 0 0 40 0 40 -40 0 -40 0 0 -40 0 -40 -40 0 -40
0 0 40 0 40 -40 0 -40 0 0 -40 0 -40 -40 0 -40 0 0 40 0 40 -120 0 -120 0 0
-40 0 -40 -40 0 -40 0 0 -40 0 -40 -40 0 -40 0 0 40 0 40 -40 0 -40 0 0 40 0
40 -40 0 -40 0 0 40 0 40 40 0 40 0 0 40 0 40 -40 0 -40 0 0 40 0 40 -40 0
-40 0 0 -40 0 -40 -40 0 -40 0 0 -40 0 -40 40 0 40 0 0 -40 0 -40 -40 0 -40 0
0 -40 0 -40 -40 0 -40 0 0 -40 0 -40 -40 0 -40 0 0 40 0 40 -40 0 -40 0 0 -40
0 -40 -40 0 -40 0 0 40 0 40 40 0 40 0 0 40 0 40 -40 0 -40 0 0 40 0 40 40 0
40 0 0 -40 0 -40 40 0 40 0 0 40 0 40 40 0 40 0 0 40 0 40 -120 0 -120 0 0 40
0 40 40 0 40 0 0 40 0 40 -40 0 -40 0 0 40 0 40 -40 0 -40 0 0 40 0 40 -40 0
-40 0 0 40 0 40 40 0 40 0 0 40 0 40 -40 0 -40 0 0 40 0 40 40 0 40 0 0 40 0
40 -40 0 -40 0 0 40 0 40 -40 0 -40 0 0 40 0 40 40 0 40 0 0 40 0 40 40 0 40
0 0 40 0 40 -40 0 -40 0 0 40 0 40 -40 0 -40 0 0 -40 0 -40 -40 0 -40 0 0 -40
0 -40 -40 0 -40 0 0 40 0 40 40 0 40 0 0 40 0 40 40 0 40 0 0 40 0 40 -40 0
-40 0 0 40 0 40 -40 0 -40 0 0 40 0 40 -40 0 -40 0 0 40 0 40 40 0 40 0 0 40
0 40 -40 0 -40 0 0 40 0 40 40 0 40 0 0 40 0 40 -120 0 -120 0 0 40 0 40 40 0
40 0 0 40 0 40 -40 0 -40 0 0 40 0 40 40 0 40 0 0 40 0 40 -40 0 -40 0 0 40 0
40 40 0 40 0 0 40 0 40 -40 0 -40 0 0 40 0 40 -40 0 -40 0 0 -40 0 -40 -40 0
-40 0 0 40 0 40 40 0 40 0 0 40 0 40 -40 0 -40 0 0 40 0 40 40 0 40 0 0 40 0
40 -40 0 -40 0 0 40 0 40 -40 0 -40 0 0 40 0 40 -40 0 -40 0 0 -40 0 -40 -40
0 -40 0 0 40 0 40 40 0 40 0 0 40 0 40 40 0 40 0 0 40 0 40 40 0 40 0 0 40 0
40 -40 0 -40 0 0 40 0 40 40 0 40 0 0 40 0 40 40 0 40 0 0 40 0 40 -40 0 -40
0 0 40 0 40 40 0 40 0 0 40 0 40 40 0 40 0 0 40 0 40 40 0 40 0 0 40 0 40 40
0 40 0 0 40 0 40 40 0 40 0 0 -40z m2960 -80 l0 -120 -80 0 -80 0 0 40 0 40
-40 0 -40 0 0 40 0 40 40 0 40 0 0 40 0 40 80 0 80 0 0 -120z m1200 80 l0 -40
-40 0 -40 0 0 40 0 40 40 0 40 0 0 -40z m320 0 l0 -40 -40 0 -40 0 0 40 0 40
40 0 40 0 0 -40z m320 0 l0 -40 -40 0 -40 0 0 40 0 40 40 0 40 0 0 -40z m960
0 l0 -40 -40 0 -40 0 0 -40 0 -40 40 0 40 0 0 -40 0 -40 40 0 40 0 0 40 0 40
40 0 40 0 0 -40 0 -40 -40 0 -40 0 0 -40 0 -40 40 0 40 0 0 -40 0 -40 -40 0
-40 0 0 40 0 40 -40 0 -40 0 0 -40 0 -40 -40 0 -40 0 0 40 0 40 40 0 40 0 0
40 0 40 -40 0 -40 0 0 40 0 40 -40 0 -40 0 0 -40 0 -40 -40 0 -40 0 0 40 0 40
40 0 40 0 0 40 0 40 40 0 40 0 0 40 0 40 40 0 40 0 0 -40z m1920 0 l0 -40 -40
0 -40 0 0 40 0 40 40 0 40 0 0 -40z m160 0 l0 -40 -40 0 -40 0 0 40 0 40 40 0
40 0 0 -40z m640 0 l0 -40 -40 0 -40 0 0 40 0 40 40 0 40 0 0 -40z m160 0 l0
-40 -40 0 -40 0 0 40 0 40 40 0 40 0 0 -40z m160 0 l0 -40 -40 0 -40 0 0 40 0
40 40 0 40 0 0 -40z m160 0 l0 -40 -40 0 -40 0 0 40 0 40 40 0 40 0 0 -40z
m-6720 -160 l0 -40 -40 0 -40 0 0 40 0 40 40 0 40 0 0 -40z m1760 0 l0 -40
-40 0 -40 0 0 40 0 40 40 0 40 0 0 -40z m480 0 l0 -40 -40 0 -40 0 0 40 0 40
40 0 40 0 0 -40z m160 0 l0 -40 -40 0 -40 0 0 40 0 40 40 0 40 0 0 -40z m480
0 l0 -40 -40 0 -40 0 0 40 0 40 40 0 40 0 0 -40z m1760 0 l0 -40 -40 0 -40 0
0 40 0 40 40 0 40 0 0 -40z m800 0 l0 -40 -40 0 -40 0 0 40 0 40 40 0 40 0 0
-40z m800 0 l0 -40 -40 0 -40 0 0 40 0 40 40 0 40 0 0 -40z m160 0 l0 -40 -40
0 -40 0 0 40 0 40 40 0 40 0 0 -40z m160 0 l0 -40 -40 0 -40 0 0 40 0 40 40 0
40 0 0 -40z m160 0 l0 -40 -40 0 -40 0 0 40 0 40 40 0 40 0 0 -40z m-10560
-160 l0 -40 -40 0 -40 0 0 40 0 40 40 0 40 0 0 -40z m160 0 l0 -40 -40 0 -40
0 0 40 0 40 40 0 40 0 0 -40z m4000 0 l0 -40 -40 0 -40 0 0 -40 0 -40 40 0 40
0 0 -40 0 -40 -40 0 -40 0 0 40 0 40 -40 0 -40 0 0 -40 0 -40 -40 0 -40 0 0
-40 0 -40 40 0 40 0 0 -40 0 -40 -40 0 -40 0 0 40 0 40 -40 0 -40 0 0 -40 0
-40 -40 0 -40 0 0 -40 0 -40 40 0 40 0 0 -40 0 -40 40 0 40 0 0 -40 0 -40 -40
0 -40 0 0 40 0 40 -40 0 -40 0 0 40 0 40 -40 0 -40 0 0 40 0 40 40 0 40 0 0
40 0 40 -40 0 -40 0 0 40 0 40 40 0 40 0 0 40 0 40 -40 0 -40 0 0 40 0 40 40
0 40 0 0 -40 0 -40 40 0 40 0 0 -40 0 -40 40 0 40 0 0 40 0 40 40 0 40 0 0 40
0 40 40 0 40 0 0 40 0 40 40 0 40 0 0 -40z m4320 0 l0 -40 -40 0 -40 0 0 40 0
40 40 0 40 0 0 -40z m800 0 l0 -40 -40 0 -40 0 0 40 0 40 40 0 40 0 0 -40z
m320 0 l0 -40 -40 0 -40 0 0 40 0 40 40 0 40 0 0 -40z m320 0 l0 -40 -40 0
-40 0 0 -80 0 -80 -40 0 -40 0 0 -80 0 -80 -40 0 -40 0 0 -40 0 -40 -40 0 -40
0 0 -40 0 -40 -40 0 -40 0 0 -40 0 -40 -40 0 -40 0 0 -40 0 -40 -40 0 -40 0 0
-40 0 -40 -40 0 -40 0 0 -40 0 -40 -40 0 -40 0 0 -40 0 -40 -40 0 -40 0 0 -40
0 -40 -40 0 -40 0 0 -40 0 -40 -40 0 -40 0 0 -40 0 -40 -40 0 -40 0 0 -40 0
-40 -40 0 -40 0 0 -40 0 -40 -40 0 -40 0 0 40 0 40 40 0 40 0 0 40 0 40 -40 0
-40 0 0 40 0 40 40 0 40 0 0 40 0 40 40 0 40 0 0 -40 0 -40 40 0 40 0 0 40 0
40 40 0 40 0 0 40 0 40 40 0 40 0 0 40 0 40 40 0 40 0 0 40 0 40 40 0 40 0 0
40 0 40 -40 0 -40 0 0 40 0 40 40 0 40 0 0 -40 0 -40 40 0 40 0 0 40 0 40 40
0 40 0 0 40 0 40 -40 0 -40 0 0 40 0 40 40 0 40 0 0 40 0 40 -40 0 -40 0 0 40
0 40 40 0 40 0 0 40 0 40 -40 0 -40 0 0 40 0 40 40 0 40 0 0 -40 0 -40 40 0
40 0 0 40 0 40 40 0 40 0 0 -40 0 -40 -40 0 -40 0 0 -40 0 -40 40 0 40 0 0
-40 0 -40 40 0 40 0 0 120 0 120 40 0 40 0 0 40 0 40 40 0 40 0 0 40 0 40 40
0 40 0 0 -40z m160 0 l0 -40 40 0 40 0 0 40 0 40 40 0 40 0 0 -40 0 -40 -40 0
-40 0 0 -40 0 -40 40 0 40 0 0 -40 0 -40 -40 0 -40 0 0 -40 0 -40 40 0 40 0 0
-40 0 -40 -40 0 -40 0 0 -40 0 -40 40 0 40 0 0 -40 0 -40 -40 0 -40 0 0 40 0
40 -40 0 -40 0 0 -40 0 -40 -40 0 -40 0 0 40 0 40 40 0 40 0 0 40 0 40 40 0
40 0 0 40 0 40 -40 0 -40 0 0 40 0 40 -40 0 -40 0 0 40 0 40 40 0 40 0 0 40 0
40 -40 0 -40 0 0 40 0 40 40 0 40 0 0 -40z m480 0 l0 -40 -40 0 -40 0 0 40 0
40 40 0 40 0 0 -40z m-10880 -160 l0 -40 40 0 40 0 0 40 0 40 40 0 40 0 0 -40
0 -40 -40 0 -40 0 0 -40 0 -40 40 0 40 0 0 -40 0 -40 -40 0 -40 0 0 -40 0 -40
40 0 40 0 0 -40 0 -40 -40 0 -40 0 0 -40 0 -40 40 0 40 0 0 -40 0 -40 40 0 40
0 0 -40 0 -40 40 0 40 0 0 -40 0 -40 -40 0 -40 0 0 -40 0 -40 40 0 40 0 0 -40
0 -40 -40 0 -40 0 0 -40 0 -40 40 0 40 0 0 -40 0 -40 -120 0 -120 0 0 -40 0
-40 40 0 40 0 0 -40 0 -40 -40 0 -40 0 0 40 0 40 -40 0 -40 0 0 -40 0 -40 -40
0 -40 0 0 40 0 40 40 0 40 0 0 40 0 40 -40 0 -40 0 0 40 0 40 40 0 40 0 0 40
0 40 -40 0 -40 0 0 40 0 40 40 0 40 0 0 40 0 40 -40 0 -40 0 0 40 0 40 40 0
40 0 0 -40 0 -40 40 0 40 0 0 40 0 40 40 0 40 0 0 40 0 40 -40 0 -40 0 0 40 0
40 -40 0 -40 0 0 -40 0 -40 -40 0 -40 0 0 40 0 40 40 0 40 0 0 40 0 40 -40 0
-40 0 0 40 0 40 40 0 40 0 0 40 0 40 -40 0 -40 0 0 40 0 40 -40 0 -40 0 0 40
0 40 40 0 40 0 0 40 0 40 40 0 40 0 0 -40z m480 0 l0 -40 -40 0 -40 0 0 40 0
40 40 0 40 0 0 -40z m320 0 l0 -40 -40 0 -40 0 0 40 0 40 40 0 40 0 0 -40z
m4800 0 l0 -40 -40 0 -40 0 0 40 0 40 40 0 40 0 0 -40z m1600 0 l0 -40 -40 0
-40 0 0 40 0 40 40 0 40 0 0 -40z m320 0 l0 -40 -40 0 -40 0 0 40 0 40 40 0
40 0 0 -40z m160 0 l0 -40 -40 0 -40 0 0 40 0 40 40 0 40 0 0 -40z m640 0 l0
-40 -40 0 -40 0 0 40 0 40 40 0 40 0 0 -40z m480 0 l0 -40 -40 0 -40 0 0 40 0
40 40 0 40 0 0 -40z m320 0 l0 -40 -40 0 -40 0 0 40 0 40 40 0 40 0 0 -40z
m1600 0 l0 -40 -40 0 -40 0 0 40 0 40 40 0 40 0 0 -40z m160 0 l0 -40 -40 0
-40 0 0 40 0 40 40 0 40 0 0 -40z m-10560 -160 l0 -40 -40 0 -40 0 0 40 0 40
40 0 40 0 0 -40z m2880 0 l0 -40 -40 0 -40 0 0 40 0 40 40 0 40 0 0 -40z m160
0 l0 -40 40 0 40 0 0 -40 0 -40 -40 0 -40 0 0 -40 0 -40 -40 0 -40 0 0 40 0
40 40 0 40 0 0 40 0 40 -40 0 -40 0 0 40 0 40 40 0 40 0 0 -40z m1120 0 l0
-40 -40 0 -40 0 0 40 0 40 40 0 40 0 0 -40z m1120 0 l0 -40 -40 0 -40 0 0 -40
0 -40 -40 0 -40 0 0 -40 0 -40 -40 0 -40 0 0 40 0 40 40 0 40 0 0 40 0 40 40
0 40 0 0 40 0 40 40 0 40 0 0 -40z m2720 0 l0 -40 -40 0 -40 0 0 40 0 40 40 0
40 0 0 -40z m320 0 l0 -40 40 0 40 0 0 40 0 40 40 0 40 0 0 -40 0 -40 -40 0
-40 0 0 -40 0 -40 -40 0 -40 0 0 -40 0 -40 -40 0 -40 0 0 40 0 40 40 0 40 0 0
40 0 40 -40 0 -40 0 0 40 0 40 40 0 40 0 0 -40z m2240 0 l0 -40 -40 0 -40 0 0
40 0 40 40 0 40 0 0 -40z m-6400 -160 l0 -40 -40 0 -40 0 0 40 0 40 40 0 40 0
0 -40z m2720 0 l0 -40 -40 0 -40 0 0 40 0 40 40 0 40 0 0 -40z m640 0 l0 -40
-40 0 -40 0 0 40 0 40 40 0 40 0 0 -40z m320 0 l0 -40 -40 0 -40 0 0 -40 0
-40 -40 0 -40 0 0 -40 0 -40 -40 0 -40 0 0 40 0 40 40 0 40 0 0 40 0 40 40 0
40 0 0 40 0 40 40 0 40 0 0 -40z m2560 0 l0 -40 -40 0 -40 0 0 40 0 40 40 0
40 0 0 -40z m-8000 -160 l0 -40 -40 0 -40 0 0 -40 0 -40 -40 0 -40 0 0 40 0
40 40 0 40 0 0 40 0 40 40 0 40 0 0 -40z m480 0 l0 -40 -40 0 -40 0 0 40 0 40
40 0 40 0 0 -40z m1280 0 l0 -40 -40 0 -40 0 0 -40 0 -40 40 0 40 0 0 -40 0
-40 -40 0 -40 0 0 40 0 40 -40 0 -40 0 0 -40 0 -40 -40 0 -40 0 0 40 0 40 40
0 40 0 0 40 0 40 40 0 40 0 0 40 0 40 40 0 40 0 0 -40z m4160 0 l0 -40 -40 0
-40 0 0 40 0 40 40 0 40 0 0 -40z m-8800 -160 l0 -40 -40 0 -40 0 0 40 0 40
40 0 40 0 0 -40z m1600 0 l0 -40 -40 0 -40 0 0 40 0 40 40 0 40 0 0 -40z
m6400 0 l0 -40 -40 0 -40 0 0 40 0 40 40 0 40 0 0 -40z m2880 0 l0 -40 -40 0
-40 0 0 40 0 40 40 0 40 0 0 -40z m-11040 -160 l0 -40 -40 0 -40 0 0 40 0 40
40 0 40 0 0 -40z m800 0 l0 -40 -40 0 -40 0 0 40 0 40 40 0 40 0 0 -40z m7200
0 l0 -40 -40 0 -40 0 0 40 0 40 40 0 40 0 0 -40z m160 0 l0 -40 -40 0 -40 0 0
40 0 40 40 0 40 0 0 -40z m2400 0 l0 -40 -40 0 -40 0 0 40 0 40 40 0 40 0 0
-40z m640 0 l0 -40 -40 0 -40 0 0 -40 0 -40 40 0 40 0 0 -40 0 -40 -40 0 -40
0 0 40 0 40 -40 0 -40 0 0 -40 0 -40 -40 0 -40 0 0 40 0 40 40 0 40 0 0 40 0
40 40 0 40 0 0 40 0 40 40 0 40 0 0 -40z m-11040 -160 l0 -40 -40 0 -40 0 0
-40 0 -40 -40 0 -40 0 0 -40 0 -40 -40 0 -40 0 0 40 0 40 40 0 40 0 0 40 0 40
40 0 40 0 0 40 0 40 40 0 40 0 0 -40z m640 0 l0 -40 -40 0 -40 0 0 40 0 40 40
0 40 0 0 -40z m3680 0 l0 -40 -40 0 -40 0 0 40 0 40 40 0 40 0 0 -40z m3040 0
l0 -40 -40 0 -40 0 0 40 0 40 40 0 40 0 0 -40z m320 0 l0 -40 -40 0 -40 0 0
40 0 40 40 0 40 0 0 -40z m640 0 l0 -40 -40 0 -40 0 0 40 0 40 40 0 40 0 0
-40z m160 0 l0 -40 -40 0 -40 0 0 40 0 40 40 0 40 0 0 -40z m160 0 l0 -40 -40
0 -40 0 0 40 0 40 40 0 40 0 0 -40z m1760 0 l0 -40 -40 0 -40 0 0 40 0 40 40
0 40 0 0 -40z m-2880 -160 l0 -40 -40 0 -40 0 0 40 0 40 40 0 40 0 0 -40z
m800 0 l0 -40 -40 0 -40 0 0 40 0 40 40 0 40 0 0 -40z m160 0 l0 -40 -40 0
-40 0 0 40 0 40 40 0 40 0 0 -40z m1280 0 l0 -40 -40 0 -40 0 0 40 0 40 40 0
40 0 0 -40z m-9120 -160 l0 -40 -40 0 -40 0 0 40 0 40 40 0 40 0 0 -40z m160
0 l0 -40 -40 0 -40 0 0 40 0 40 40 0 40 0 0 -40z m3360 0 l0 -40 -40 0 -40 0
0 40 0 40 40 0 40 0 0 -40z m3200 0 l0 -40 -40 0 -40 0 0 40 0 40 40 0 40 0 0
-40z m960 0 l0 -40 -40 0 -40 0 0 40 0 40 40 0 40 0 0 -40z m160 0 l0 -40 -40
0 -40 0 0 40 0 40 40 0 40 0 0 -40z m160 0 l0 -40 -40 0 -40 0 0 40 0 40 40 0
40 0 0 -40z m800 0 l0 -40 -40 0 -40 0 0 40 0 40 40 0 40 0 0 -40z m640 0 l0
-40 -40 0 -40 0 0 40 0 40 40 0 40 0 0 -40z m-10240 -160 l0 -40 40 0 40 0 0
40 0 40 40 0 40 0 0 -40 0 -40 -40 0 -40 0 0 -40 0 -40 40 0 40 0 0 -40 0 -40
40 0 40 0 0 -40 0 -40 40 0 40 0 0 -40 0 -40 -40 0 -40 0 0 -40 0 -40 40 0 40
0 0 -40 0 -40 -40 0 -40 0 0 -40 0 -40 40 0 40 0 0 -40 0 -40 -40 0 -40 0 0
40 0 40 -40 0 -40 0 0 -40 0 -40 -40 0 -40 0 0 -40 0 -40 40 0 40 0 0 -40 0
-40 -40 0 -40 0 0 40 0 40 -40 0 -40 0 0 -40 0 -40 -40 0 -40 0 0 40 0 40 -40
0 -40 0 0 -40 0 -40 -40 0 -40 0 0 40 0 40 40 0 40 0 0 40 0 40 -40 0 -40 0 0
40 0 40 40 0 40 0 0 -40 0 -40 40 0 40 0 0 40 0 40 40 0 40 0 0 40 0 40 -40 0
-40 0 0 40 0 40 -40 0 -40 0 0 -40 0 -40 -40 0 -40 0 0 40 0 40 40 0 40 0 0
40 0 40 40 0 40 0 0 -40 0 -40 40 0 40 0 0 40 0 40 40 0 40 0 0 40 0 40 -40 0
-40 0 0 40 0 40 -40 0 -40 0 0 40 0 40 40 0 40 0 0 40 0 40 -40 0 -40 0 0 40
0 40 40 0 40 0 0 -40z m800 0 l0 -40 -40 0 -40 0 0 40 0 40 40 0 40 0 0 -40z
m160 0 l0 -40 -40 0 -40 0 0 40 0 40 40 0 40 0 0 -40z m7040 0 l0 -40 -40 0
-40 0 0 40 0 40 40 0 40 0 0 -40z m1600 0 l0 -40 -40 0 -40 0 0 -40 0 -40 40
0 40 0 0 -40 0 -40 -120 0 -120 0 0 -40 0 -40 -40 0 -40 0 0 40 0 40 -40 0
-40 0 0 40 0 40 40 0 40 0 0 -40 0 -40 40 0 40 0 0 40 0 40 40 0 40 0 0 40 0
40 40 0 40 0 0 40 0 40 40 0 40 0 0 -40z m640 0 l0 -40 -40 0 -40 0 0 40 0 40
40 0 40 0 0 -40z m-10400 -160 l0 -40 -40 0 -40 0 0 40 0 40 40 0 40 0 0 -40z
m640 0 l0 -40 -40 0 -40 0 0 40 0 40 40 0 40 0 0 -40z m320 0 l0 -40 -40 0
-40 0 0 40 0 40 40 0 40 0 0 -40z m160 0 l0 -40 40 0 40 0 0 -40 0 -40 40 0
40 0 0 -40 0 -40 -40 0 -40 0 0 -40 0 -40 40 0 40 0 0 -40 0 -40 -40 0 -40 0
0 -40 0 -40 40 0 40 0 0 -40 0 -40 -120 0 -120 0 0 40 0 40 40 0 40 0 0 40 0
40 -40 0 -40 0 0 40 0 40 -40 0 -40 0 0 40 0 40 40 0 40 0 0 40 0 40 40 0 40
0 0 40 0 40 -40 0 -40 0 0 40 0 40 40 0 40 0 0 -40z m800 0 l0 -40 -40 0 -40
0 0 40 0 40 40 0 40 0 0 -40z m5760 0 l0 -40 -40 0 -40 0 0 40 0 40 40 0 40 0
0 -40z m160 0 l0 -40 -40 0 -40 0 0 40 0 40 40 0 40 0 0 -40z m160 0 l0 -40
-40 0 -40 0 0 40 0 40 40 0 40 0 0 -40z m-3680 -160 l0 -40 -40 0 -40 0 0 40
0 40 40 0 40 0 0 -40z m3520 0 l0 -40 -40 0 -40 0 0 40 0 40 40 0 40 0 0 -40z
m1920 0 l0 -40 -40 0 -40 0 0 -40 0 -40 -40 0 -40 0 0 -40 0 -40 -40 0 -40 0
0 40 0 40 40 0 40 0 0 40 0 40 40 0 40 0 0 40 0 40 40 0 40 0 0 -40z m640 0
l0 -40 -40 0 -40 0 0 -40 0 -40 -40 0 -40 0 0 -40 0 -40 -40 0 -40 0 0 40 0
40 40 0 40 0 0 40 0 40 40 0 40 0 0 40 0 40 40 0 40 0 0 -40z m-9760 -160 l0
-40 -40 0 -40 0 0 40 0 40 40 0 40 0 0 -40z m1280 0 l0 -40 -40 0 -40 0 0 40
0 40 40 0 40 0 0 -40z m2240 0 l0 -40 -40 0 -40 0 0 40 0 40 40 0 40 0 0 -40z
m3840 0 l0 -40 -40 0 -40 0 0 40 0 40 40 0 40 0 0 -40z m-2080 -160 l0 -40
-40 0 -40 0 0 40 0 40 40 0 40 0 0 -40z m2240 0 l0 -40 -40 0 -40 0 0 40 0 40
40 0 40 0 0 -40z m-5840 -80 l0 -40 -40 0 -40 0 0 -40 0 -40 -40 0 -40 0 0 40
0 40 40 0 40 0 0 40 0 40 40 0 40 0 0 -40z m-2480 -80 l0 -40 -40 0 -40 0 0
40 0 40 40 0 40 0 0 -40z m640 0 l0 -40 -40 0 -40 0 0 40 0 40 40 0 40 0 0
-40z m640 0 l0 -40 -40 0 -40 0 0 40 0 40 40 0 40 0 0 -40z m160 0 l0 -40 -40
0 -40 0 0 40 0 40 40 0 40 0 0 -40z m6400 0 l0 -40 -40 0 -40 0 0 40 0 40 40
0 40 0 0 -40z m320 0 l0 -40 -40 0 -40 0 0 40 0 40 40 0 40 0 0 -40z m2080 0
l0 -40 -40 0 -40 0 0 -40 0 -40 40 0 40 0 0 -40 0 -40 -40 0 -40 0 0 -40 0
-40 -40 0 -40 0 0 -40 0 -40 -40 0 -40 0 0 -40 0 -40 -40 0 -40 0 0 -40 0 -40
-40 0 -40 0 0 40 0 40 40 0 40 0 0 40 0 40 -40 0 -40 0 0 40 0 40 40 0 40 0 0
40 0 40 -40 0 -40 0 0 40 0 40 40 0 40 0 0 -40 0 -40 40 0 40 0 0 40 0 40 40
0 40 0 0 40 0 40 40 0 40 0 0 40 0 40 40 0 40 0 0 -40z m-10240 -160 l0 -40
-40 0 -40 0 0 -40 0 -40 -40 0 -40 0 0 40 0 40 40 0 40 0 0 40 0 40 40 0 40 0
0 -40z m320 0 l0 -40 -40 0 -40 0 0 -40 0 -40 40 0 40 0 0 -40 0 -40 40 0 40
0 0 40 0 40 40 0 40 0 0 -40 0 -40 -40 0 -40 0 0 -40 0 -40 40 0 40 0 0 -40 0
-40 -40 0 -40 0 0 -40 0 -40 40 0 40 0 0 -40 0 -40 -40 0 -40 0 0 40 0 40 -40
0 -40 0 0 -40 0 -40 -40 0 -40 0 0 -40 0 -40 40 0 40 0 0 -40 0 -40 -40 0 -40
0 0 40 0 40 -40 0 -40 0 0 40 0 40 -40 0 -40 0 0 40 0 40 40 0 40 0 0 40 0 40
40 0 40 0 0 40 0 40 40 0 40 0 0 40 0 40 -40 0 -40 0 0 40 0 40 -40 0 -40 0 0
40 0 40 40 0 40 0 0 40 0 40 40 0 40 0 0 -40z m480 0 l0 -40 -40 0 -40 0 0 40
0 40 40 0 40 0 0 -40z m480 0 l0 -40 -40 0 -40 0 0 40 0 40 40 0 40 0 0 -40z
m160 0 l0 -40 -40 0 -40 0 0 40 0 40 40 0 40 0 0 -40z m6560 0 l0 -40 -40 0
-40 0 0 -40 0 -40 -40 0 -40 0 0 -40 0 -40 -40 0 -40 0 0 40 0 40 40 0 40 0 0
40 0 40 40 0 40 0 0 40 0 40 40 0 40 0 0 -40z m3200 0 l0 -40 40 0 40 0 0 -40
0 -40 -40 0 -40 0 0 40 0 40 -40 0 -40 0 0 40 0 40 40 0 40 0 0 -40z m-10400
-160 l0 -40 -40 0 -40 0 0 40 0 40 40 0 40 0 0 -40z m480 0 l0 -40 -40 0 -40
0 0 40 0 40 40 0 40 0 0 -40z m160 0 l0 -40 -40 0 -40 0 0 40 0 40 40 0 40 0
0 -40z m320 0 l0 -40 -40 0 -40 0 0 40 0 40 40 0 40 0 0 -40z m640 0 l0 -40
-40 0 -40 0 0 40 0 40 40 0 40 0 0 -40z m-2400 -160 l0 -40 -40 0 -40 0 0 40
0 40 40 0 40 0 0 -40z m640 0 l0 -40 -40 0 -40 0 0 40 0 40 40 0 40 0 0 -40z
m320 0 l0 -40 -40 0 -40 0 0 40 0 40 40 0 40 0 0 -40z m480 0 l0 -40 -40 0
-40 0 0 40 0 40 40 0 40 0 0 -40z m6240 0 l0 -40 -40 0 -40 0 0 40 0 40 40 0
40 0 0 -40z m160 0 l0 -40 -40 0 -40 0 0 40 0 40 40 0 40 0 0 -40z m3360 0 l0
-40 -40 0 -40 0 0 40 0 40 40 0 40 0 0 -40z m-10560 -160 l0 -40 -40 0 -40 0
0 40 0 40 40 0 40 0 0 -40z m160 0 l0 -40 -40 0 -40 0 0 40 0 40 40 0 40 0 0
-40z m640 0 l0 -40 -40 0 -40 0 0 -40 0 -40 40 0 40 0 0 -40 0 -40 -40 0 -40
0 0 40 0 40 -40 0 -40 0 0 40 0 40 40 0 40 0 0 40 0 40 40 0 40 0 0 -40z
m4160 0 l0 -40 -40 0 -40 0 0 40 0 40 40 0 40 0 0 -40z m1280 0 l0 -40 -40 0
-40 0 0 40 0 40 40 0 40 0 0 -40z m2880 0 l0 -40 -40 0 -40 0 0 40 0 40 40 0
40 0 0 -40z m-9760 -160 l0 -40 -40 0 -40 0 0 40 0 40 40 0 40 0 0 -40z m1120
0 l0 -40 -40 0 -40 0 0 40 0 40 40 0 40 0 0 -40z m1760 0 l0 -40 -40 0 -40 0
0 40 0 40 40 0 40 0 0 -40z m4000 0 l0 -40 -40 0 -40 0 0 40 0 40 40 0 40 0 0
-40z m160 0 l0 -40 -40 0 -40 0 0 40 0 40 40 0 40 0 0 -40z m640 0 l0 -40 -40
0 -40 0 0 40 0 40 40 0 40 0 0 -40z m1920 0 l0 -40 -40 0 -40 0 0 40 0 40 40
0 40 0 0 -40z m640 0 l0 -40 -40 0 -40 0 0 40 0 40 40 0 40 0 0 -40z m-10080
-160 l0 -40 -40 0 -40 0 0 40 0 40 40 0 40 0 0 -40z m320 0 l0 -40 -40 0 -40
0 0 40 0 40 40 0 40 0 0 -40z m640 0 l0 -40 -40 0 -40 0 0 40 0 40 40 0 40 0
0 -40z m320 0 l0 -40 -40 0 -40 0 0 40 0 40 40 0 40 0 0 -40z m640 0 l0 -40
-40 0 -40 0 0 40 0 40 40 0 40 0 0 -40z m480 0 l0 -40 -40 0 -40 0 0 40 0 40
40 0 40 0 0 -40z m4320 0 l0 -40 -40 0 -40 0 0 40 0 40 40 0 40 0 0 -40z m160
0 l0 -40 -40 0 -40 0 0 40 0 40 40 0 40 0 0 -40z m800 0 l0 -40 -40 0 -40 0 0
40 0 40 40 0 40 0 0 -40z m2240 0 l0 -40 -40 0 -40 0 0 40 0 40 40 0 40 0 0
-40z"/>
<path d="M5440 10230 l0 -40 40 0 40 0 0 40 0 40 -40 0 -40 0 0 -40z"/>
<path d="M5600 10230 l0 -40 40 0 40 0 0 40 0 40 -40 0 -40 0 0 -40z"/>
<path d="M6400 9750 l0 -40 40 0 40 0 0 40 0 40 -40 0 -40 0 0 -40z"/>
<path d="M4160 8630 l0 -40 40 0 40 0 0 40 0 40 -40 0 -40 0 0 -40z"/>
<path d="M5120 8630 l0 -40 120 0 120 0 0 40 0 40 -120 0 -120 0 0 -40z"/>
<path d="M4000 8470 l0 -40 40 0 40 0 0 -40 0 -40 -40 0 -40 0 0 -40 0 -40 80
0 80 0 0 120 0 120 -80 0 -80 0 0 -40z"/>
<path d="M6080 8310 l0 -40 40 0 40 0 0 40 0 40 -40 0 -40 0 0 -40z"/>
<path d="M4160 7990 l0 -40 40 0 40 0 0 40 0 40 -40 0 -40 0 0 -40z"/>
<path d="M5280 7990 l0 -40 -40 0 -40 0 0 -40 0 -40 -120 0 -120 0 0 -40 0
-40 120 0 120 0 0 40 0 40 40 0 40 0 0 -40 0 -40 40 0 40 0 0 40 0 40 -40 0
-40 0 0 40 0 40 40 0 40 0 0 40 0 40 -40 0 -40 0 0 -40z"/>
<path d="M4160 7830 l0 -40 40 0 40 0 0 40 0 40 -40 0 -40 0 0 -40z"/>
<path d="M4160 7670 l0 -40 40 0 40 0 0 -40 0 -40 -40 0 -40 0 0 -40 0 -40 40
0 40 0 0 40 0 40 40 0 40 0 0 -40 0 -40 40 0 40 0 0 40 0 40 -40 0 -40 0 0 40
0 40 -40 0 -40 0 0 40 0 40 -40 0 -40 0 0 -40z"/>
<path d="M4800 7670 l0 -40 40 0 40 0 0 40 0 40 -40 0 -40 0 0 -40z"/>
<path d="M4960 7670 l0 -40 40 0 40 0 0 40 0 40 -40 0 -40 0 0 -40z"/>
<path d="M5120 7670 l0 -40 80 0 80 0 0 40 0 40 -80 0 -80 0 0 -40z"/>
<path d="M4480 7350 l0 -40 -40 0 -40 0 0 -40 0 -40 40 0 40 0 0 40 0 40 40 0
40 0 0 40 0 40 -40 0 -40 0 0 -40z"/>
<path d="M4480 7030 l0 -40 40 0 40 0 0 40 0 40 -40 0 -40 0 0 -40z"/>
<path d="M4480 6870 l0 -40 40 0 40 0 0 40 0 40 -40 0 -40 0 0 -40z"/>
<path d="M4640 6870 l0 -40 40 0 40 0 0 40 0 40 -40 0 -40 0 0 -40z"/>
<path d="M4800 6870 l0 -40 40 0 40 0 0 40 0 40 -40 0 -40 0 0 -40z"/>
<path d="M6400 6710 l0 -40 40 0 40 0 0 40 0 40 -40 0 -40 0 0 -40z"/>
<path d="M4880 6630 l0 -40 40 0 40 0 0 -40 0 -40 40 0 40 0 0 40 0 40 -40 0
-40 0 0 40 0 40 -40 0 -40 0 0 -40z"/>
<path d="M560 9030 l0 -40 40 0 40 0 0 40 0 40 -40 0 -40 0 0 -40z"/>
<path d="M6720 8470 l0 -40 40 0 40 0 0 40 0 40 -40 0 -40 0 0 -40z"/>
<path d="M6880 8470 l0 -40 40 0 40 0 0 40 0 40 -40 0 -40 0 0 -40z"/>
<path d="M7360 8470 l0 -40 40 0 40 0 0 40 0 40 -40 0 -40 0 0 -40z"/>
<path d="M7200 8310 l0 -40 40 0 40 0 0 40 0 40 -40 0 -40 0 0 -40z"/>
<path d="M7200 8150 l0 -40 40 0 40 0 0 40 0 40 -40 0 -40 0 0 -40z"/>
<path d="M6720 7990 l0 -40 40 0 40 0 0 -40 0 -40 40 0 40 0 0 40 0 40 -40 0
-40 0 0 40 0 40 -40 0 -40 0 0 -40z"/>
<path d="M7040 7990 l0 -40 40 0 40 0 0 40 0 40 -40 0 -40 0 0 -40z"/>
<path d="M800 7510 l0 -40 40 0 40 0 0 40 0 40 -40 0 -40 0 0 -40z"/>
<path d="M4960 5590 l0 -40 40 0 40 0 0 40 0 40 -40 0 -40 0 0 -40z"/>
<path d="M5120 5590 l0 -40 40 0 40 0 0 40 0 40 -40 0 -40 0 0 -40z"/>
<path d="M4960 5430 l0 -40 40 0 40 0 0 40 0 40 -40 0 -40 0 0 -40z"/>
<path d="M5280 5270 l0 -40 40 0 40 0 0 40 0 40 -40 0 -40 0 0 -40z"/>
<path d="M8320 5430 l0 -40 40 0 40 0 0 -40 0 -40 40 0 40 0 0 -40 0 -40 40 0
40 0 0 -40 0 -40 40 0 40 0 0 40 0 40 40 0 40 0 0 40 0 40 -40 0 -40 0 0 -40
0 -40 -40 0 -40 0 0 40 0 40 -40 0 -40 0 0 40 0 40 -40 0 -40 0 0 40 0 40 -40
0 -40 0 0 -40z"/>
<path d="M9280 4950 l0 -40 40 0 40 0 0 40 0 40 -40 0 -40 0 0 -40z"/>
<path d="M1760 4310 l0 -40 40 0 40 0 0 40 0 40 -40 0 -40 0 0 -40z"/>
<path d="M1600 4150 l0 -40 -40 0 -40 0 0 -40 0 -40 -40 0 -40 0 0 -40 0 -40
40 0 40 0 0 40 0 40 40 0 40 0 0 40 0 40 40 0 40 0 0 40 0 40 -40 0 -40 0 0
-40z"/>
<path d="M2880 4630 l0 -40 40 0 40 0 0 40 0 40 -40 0 -40 0 0 -40z"/>
<path d="M2560 4470 l0 -40 40 0 40 0 0 40 0 40 -40 0 -40 0 0 -40z"/>
<path d="M2720 4310 l0 -40 40 0 40 0 0 -40 0 -40 -40 0 -40 0 0 -40 0 -40
-40 0 -40 0 0 40 0 40 -40 0 -40 0 0 -40 0 -40 40 0 40 0 0 -40 0 -40 40 0 40
0 0 40 0 40 40 0 40 0 0 40 0 40 40 0 40 0 0 40 0 40 -40 0 -40 0 0 40 0 40
-40 0 -40 0 0 -40z"/>
<path d="M2080 3670 l0 -40 40 0 40 0 0 40 0 40 -40 0 -40 0 0 -40z"/>
<path d="M11120 4710 l0 -40 -40 0 -40 0 0 -40 0 -40 -40 0 -40 0 0 -40 0 -40
-40 0 -40 0 0 -40 0 -40 40 0 40 0 0 -40 0 -40 -40 0 -40 0 0 -40 0 -40 40 0
40 0 0 40 0 40 40 0 40 0 0 40 0 40 40 0 40 0 0 40 0 40 40 0 40 0 0 40 0 40
40 0 40 0 0 40 0 40 -40 0 -40 0 0 40 0 40 -40 0 -40 0 0 -40z m80 -80 l0 -40
-40 0 -40 0 0 -40 0 -40 -40 0 -40 0 0 -40 0 -40 -40 0 -40 0 0 40 0 40 40 0
40 0 0 40 0 40 40 0 40 0 0 40 0 40 40 0 40 0 0 -40z"/>
<path d="M11360 4630 l0 -40 40 0 40 0 0 -40 0 -40 40 0 40 0 0 -40 0 -40 -40
0 -40 0 0 -40 0 -40 40 0 40 0 0 -40 0 -40 40 0 40 0 0 -40 0 -40 40 0 40 0 0
40 0 40 -40 0 -40 0 0 40 0 40 -40 0 -40 0 0 40 0 40 40 0 40 0 0 40 0 40 40
0 40 0 0 40 0 40 -40 0 -40 0 0 40 0 40 -40 0 -40 0 0 -40 0 -40 -40 0 -40 0
0 40 0 40 -40 0 -40 0 0 -40z m240 -80 l0 -40 -40 0 -40 0 0 40 0 40 40 0 40
0 0 -40z"/>
<path d="M11600 4070 l0 -40 40 0 40 0 0 40 0 40 -40 0 -40 0 0 -40z"/>
<path d="M5040 4550 l0 -40 40 0 40 0 0 40 0 40 -40 0 -40 0 0 -40z"/>
<path d="M5440 3990 l0 -40 40 0 40 0 0 40 0 40 -40 0 -40 0 0 -40z"/>
<path d="M3840 3670 l0 -40 40 0 40 0 0 40 0 40 -40 0 -40 0 0 -40z"/>
<path d="M5280 3670 l0 -40 40 0 40 0 0 40 0 40 -40 0 -40 0 0 -40z"/>
<path d="M2640 3590 l0 -40 -40 0 -40 0 0 -40 0 -40 40 0 40 0 0 -40 0 -40
-40 0 -40 0 0 -40 0 -40 -40 0 -40 0 0 -40 0 -40 -40 0 -40 0 0 -40 0 -40 40
0 40 0 0 -40 0 -40 -40 0 -40 0 0 -40 0 -40 40 0 40 0 0 -40 0 -40 -40 0 -40
0 0 -40 0 -40 40 0 40 0 0 -40 0 -40 40 0 40 0 0 -40 0 -40 -40 0 -40 0 0 -40
0 -40 40 0 40 0 0 -40 0 -40 40 0 40 0 0 -40 0 -40 40 0 40 0 0 -40 0 -40 40
0 40 0 0 40 0 40 40 0 40 0 0 -40 0 -40 40 0 40 0 0 40 0 40 40 0 40 0 0 -40
0 -40 40 0 40 0 0 -40 0 -40 -40 0 -40 0 0 -40 0 -40 40 0 40 0 0 -40 0 -40
-40 0 -40 0 0 -40 0 -40 40 0 40 0 0 -40 0 -40 -40 0 -40 0 0 -40 0 -40 -40 0
-40 0 0 40 0 40 -40 0 -40 0 0 -40 0 -40 40 0 40 0 0 -40 0 -40 -40 0 -40 0 0
-40 0 -40 -40 0 -40 0 0 -40 0 -40 40 0 40 0 0 -40 0 -40 40 0 40 0 0 -40 0
-40 40 0 40 0 0 -40 0 -40 40 0 40 0 0 40 0 40 -40 0 -40 0 0 40 0 40 40 0 40
0 0 40 0 40 40 0 40 0 0 -40 0 -40 40 0 40 0 0 -40 0 -40 40 0 40 0 0 -40 0
-40 40 0 40 0 0 -40 0 -40 -40 0 -40 0 0 -40 0 -40 -40 0 -40 0 0 -40 0 -40
-40 0 -40 0 0 -40 0 -40 40 0 40 0 0 40 0 40 40 0 40 0 0 -40 0 -40 40 0 40 0
0 -40 0 -40 -40 0 -40 0 0 -40 0 -40 -40 0 -40 0 0 40 0 40 -40 0 -40 0 0 -40
0 -40 -40 0 -40 0 0 -40 0 -40 40 0 40 0 0 -40 0 -40 -40 0 -40 0 0 -40 0 -40
40 0 40 0 0 -40 0 -40 40 0 40 0 0 -40 0 -40 40 0 40 0 0 -40 0 -40 40 0 40 0
0 -40 0 -40 40 0 40 0 0 40 0 40 40 0 40 0 0 40 0 40 40 0 40 0 0 -40 0 -40
40 0 40 0 0 -40 0 -40 40 0 40 0 0 -40 0 -40 -40 0 -40 0 0 -40 0 -40 40 0 40
0 0 -40 0 -40 40 0 40 0 0 40 0 40 40 0 40 0 0 40 0 40 40 0 40 0 0 40 0 40
-40 0 -40 0 0 -40 0 -40 -40 0 -40 0 0 40 0 40 -40 0 -40 0 0 40 0 40 40 0 40
0 0 40 0 40 40 0 40 0 0 -40 0 -40 40 0 40 0 0 40 0 40 -40 0 -40 0 0 40 0 40
40 0 40 0 0 40 0 40 40 0 40 0 0 -40 0 -40 40 0 40 0 0 -40 0 -40 40 0 40 0 0
-40 0 -40 40 0 40 0 0 40 0 40 -40 0 -40 0 0 40 0 40 40 0 40 0 0 40 0 40 -40
0 -40 0 0 -40 0 -40 -40 0 -40 0 0 40 0 40 -40 0 -40 0 0 40 0 40 40 0 40 0 0
40 0 40 40 0 40 0 0 40 0 40 40 0 40 0 0 40 0 40 -120 0 -120 0 0 40 0 40 40
0 40 0 0 40 0 40 40 0 40 0 0 40 0 40 -40 0 -40 0 0 40 0 40 40 0 40 0 0 40 0
40 -40 0 -40 0 0 40 0 40 40 0 40 0 0 40 0 40 40 0 40 0 0 40 0 40 40 0 40 0
0 40 0 40 40 0 40 0 0 40 0 40 -40 0 -40 0 0 -40 0 -40 -40 0 -40 0 0 40 0 40
-40 0 -40 0 0 40 0 40 -40 0 -40 0 0 40 0 40 -40 0 -40 0 0 -40 0 -40 40 0 40
0 0 -40 0 -40 -40 0 -40 0 0 -40 0 -40 -40 0 -40 0 0 -40 0 -40 -40 0 -40 0 0
-40 0 -40 -40 0 -40 0 0 40 0 40 -40 0 -40 0 0 -40 0 -40 40 0 40 0 0 -40 0
-40 -40 0 -40 0 0 -40 0 -40 -40 0 -40 0 0 40 0 40 -40 0 -40 0 0 40 0 40 40
0 40 0 0 40 0 40 -40 0 -40 0 0 -40 0 -40 -40 0 -40 0 0 40 0 40 -40 0 -40 0
0 40 0 40 40 0 40 0 0 40 0 40 40 0 40 0 0 -40 0 -40 40 0 40 0 0 40 0 40 -40
0 -40 0 0 40 0 40 40 0 40 0 0 40 0 40 40 0 40 0 0 -40 0 -40 40 0 40 0 0 40
0 40 -40 0 -40 0 0 40 0 40 40 0 40 0 0 40 0 40 -40 0 -40 0 0 -40 0 -40 -40
0 -40 0 0 40 0 40 -40 0 -40 0 0 40 0 40 -40 0 -40 0 0 40 0 40 -40 0 -40 0 0
-40 0 -40 40 0 40 0 0 -40 0 -40 -40 0 -40 0 0 -40 0 -40 -40 0 -40 0 0 40 0
40 -40 0 -40 0 0 40 0 40 40 0 40 0 0 40 0 40 -40 0 -40 0 0 -40 0 -40 -40 0
-40 0 0 40 0 40 -40 0 -40 0 0 40 0 40 40 0 40 0 0 40 0 40 -40 0 -40 0 0 40
0 40 -40 0 -40 0 0 40 0 40 -40 0 -40 0 0 -40 0 -40 -40 0 -40 0 0 40 0 40
-40 0 -40 0 0 40 0 40 40 0 40 0 0 40 0 40 -40 0 -40 0 0 40 0 40 -40 0 -40 0
0 40 0 40 -40 0 -40 0 0 40 0 40 -40 0 -40 0 0 40 0 40 -40 0 -40 0 0 40 0 40
40 0 40 0 0 40 0 40 -40 0 -40 0 0 40 0 40 40 0 40 0 0 40 0 40 40 0 40 0 0
-40 0 -40 40 0 40 0 0 40 0 40 -40 0 -40 0 0 40 0 40 40 0 40 0 0 40 0 40 -40
0 -40 0 0 40 0 40 -40 0 -40 0 0 -40z m80 -80 l0 -40 -40 0 -40 0 0 40 0 40
40 0 40 0 0 -40z m-160 -320 l0 -40 -40 0 -40 0 0 40 0 40 40 0 40 0 0 -40z
m0 -160 l0 -40 40 0 40 0 0 -40 0 -40 40 0 40 0 0 -40 0 -40 40 0 40 0 0 -40
0 -40 40 0 40 0 0 -40 0 -40 -40 0 -40 0 0 -40 0 -40 40 0 40 0 0 -40 0 -40
40 0 40 0 0 -40 0 -40 -40 0 -40 0 0 40 0 40 -40 0 -40 0 0 -40 0 -40 -40 0
-40 0 0 40 0 40 -40 0 -40 0 0 40 0 40 -40 0 -40 0 0 40 0 40 40 0 40 0 0 40
0 40 -40 0 -40 0 0 40 0 40 -40 0 -40 0 0 40 0 40 40 0 40 0 0 40 0 40 -40 0
-40 0 0 40 0 40 40 0 40 0 0 -40z m560 -560 l0 -40 40 0 40 0 0 -40 0 -40 -40
0 -40 0 0 40 0 40 -40 0 -40 0 0 40 0 40 40 0 40 0 0 -40z m80 -240 l0 -40 40
0 40 0 0 -40 0 -40 40 0 40 0 0 -40 0 -40 40 0 40 0 0 -40 0 -40 40 0 40 0 0
40 0 40 40 0 40 0 0 40 0 40 40 0 40 0 0 -40 0 -40 40 0 40 0 0 -40 0 -40 -40
0 -40 0 0 -40 0 -40 -40 0 -40 0 0 -40 0 -40 -40 0 -40 0 0 -40 0 -40 -40 0
-40 0 0 -40 0 -40 40 0 40 0 0 -40 0 -40 40 0 40 0 0 -40 0 -40 40 0 40 0 0
-40 0 -40 40 0 40 0 0 -40 0 -40 40 0 40 0 0 40 0 40 40 0 40 0 0 40 0 40 40
0 40 0 0 40 0 40 40 0 40 0 0 40 0 40 40 0 40 0 0 40 0 40 40 0 40 0 0 40 0
40 40 0 40 0 0 -40 0 -40 40 0 40 0 0 -40 0 -40 -40 0 -40 0 0 -40 0 -40 -40
0 -40 0 0 -40 0 -40 -40 0 -40 0 0 -40 0 -40 40 0 40 0 0 -40 0 -40 -40 0 -40
0 0 -40 0 -40 40 0 40 0 0 -40 0 -40 -40 0 -40 0 0 -40 0 -40 -40 0 -40 0 0
-40 0 -40 40 0 40 0 0 -40 0 -40 40 0 40 0 0 -40 0 -40 -40 0 -40 0 0 -40 0
-40 -40 0 -40 0 0 -40 0 -40 -40 0 -40 0 0 -40 0 -40 -40 0 -40 0 0 -40 0 -40
-40 0 -40 0 0 -40 0 -40 -40 0 -40 0 0 40 0 40 -40 0 -40 0 0 40 0 40 -40 0
-40 0 0 -40 0 -40 -40 0 -40 0 0 -40 0 -40 -40 0 -40 0 0 40 0 40 -40 0 -40 0
0 40 0 40 -40 0 -40 0 0 40 0 40 -40 0 -40 0 0 40 0 40 40 0 40 0 0 40 0 40
-40 0 -40 0 0 40 0 40 40 0 40 0 0 -40 0 -40 40 0 40 0 0 40 0 40 40 0 40 0 0
40 0 40 40 0 40 0 0 40 0 40 40 0 40 0 0 40 0 40 -40 0 -40 0 0 40 0 40 -40 0
-40 0 0 -40 0 -40 -40 0 -40 0 0 40 0 40 40 0 40 0 0 40 0 40 40 0 40 0 0 40
0 40 -40 0 -40 0 0 40 0 40 -40 0 -40 0 0 40 0 40 -40 0 -40 0 0 40 0 40 -40
0 -40 0 0 40 0 40 -40 0 -40 0 0 -40 0 -40 -40 0 -40 0 0 -40 0 -40 -40 0 -40
0 0 40 0 40 -40 0 -40 0 0 40 0 40 40 0 40 0 0 40 0 40 40 0 40 0 0 40 0 40
40 0 40 0 0 40 0 40 40 0 40 0 0 40 0 40 40 0 40 0 0 40 0 40 -40 0 -40 0 0
40 0 40 -40 0 -40 0 0 40 0 40 40 0 40 0 0 -40z m720 -2000 l0 -40 -40 0 -40
0 0 40 0 40 40 0 40 0 0 -40z"/>
<path d="M2560 2870 l0 -40 40 0 40 0 0 -40 0 -40 40 0 40 0 0 -40 0 -40 40 0
40 0 0 40 0 40 -40 0 -40 0 0 40 0 40 -40 0 -40 0 0 40 0 40 -40 0 -40 0 0
-40z"/>
<path d="M2720 2550 l0 -40 40 0 40 0 0 40 0 40 -40 0 -40 0 0 -40z"/>
<path d="M3600 1990 l0 -40 -40 0 -40 0 0 -40 0 -40 -40 0 -40 0 0 40 0 40
-40 0 -40 0 0 -40 0 -40 -40 0 -40 0 0 40 0 40 -40 0 -40 0 0 -40 0 -40 -40 0
-40 0 0 -40 0 -40 -40 0 -40 0 0 -40 0 -40 40 0 40 0 0 40 0 40 40 0 40 0 0
-40 0 -40 40 0 40 0 0 40 0 40 40 0 40 0 0 -40 0 -40 40 0 40 0 0 40 0 40 40
0 40 0 0 40 0 40 40 0 40 0 0 40 0 40 40 0 40 0 0 40 0 40 -40 0 -40 0 0 -40z
m-320 -160 l0 -40 -40 0 -40 0 0 40 0 40 40 0 40 0 0 -40z m160 0 l0 -40 -40
0 -40 0 0 40 0 40 40 0 40 0 0 -40z"/>
<path d="M3360 1590 l0 -40 40 0 40 0 0 -40 0 -40 40 0 40 0 0 -40 0 -40 40 0
40 0 0 -40 0 -40 -40 0 -40 0 0 -40 0 -40 40 0 40 0 0 -40 0 -40 40 0 40 0 0
-40 0 -40 40 0 40 0 0 -40 0 -40 -40 0 -40 0 0 -40 0 -40 -40 0 -40 0 0 40 0
40 -40 0 -40 0 0 -40 0 -40 40 0 40 0 0 -40 0 -40 40 0 40 0 0 -40 0 -40 40 0
40 0 0 -40 0 -40 -40 0 -40 0 0 -40 0 -40 40 0 40 0 0 -40 0 -40 40 0 40 0 0
40 0 40 40 0 40 0 0 40 0 40 -40 0 -40 0 0 40 0 40 40 0 40 0 0 40 0 40 40 0
40 0 0 -40 0 -40 40 0 40 0 0 40 0 40 40 0 40 0 0 40 0 40 -40 0 -40 0 0 40 0
40 -40 0 -40 0 0 40 0 40 40 0 40 0 0 40 0 40 -40 0 -40 0 0 40 0 40 40 0 40
0 0 40 0 40 40 0 40 0 0 40 0 40 -40 0 -40 0 0 40 0 40 40 0 40 0 0 40 0 40
40 0 40 0 0 40 0 40 -40 0 -40 0 0 -40 0 -40 -40 0 -40 0 0 -40 0 -40 -40 0
-40 0 0 -40 0 -40 40 0 40 0 0 -40 0 -40 -40 0 -40 0 0 -40 0 -40 -40 0 -40 0
0 40 0 40 -40 0 -40 0 0 -40 0 -40 40 0 40 0 0 -40 0 -40 -120 0 -120 0 0 40
0 40 40 0 40 0 0 40 0 40 -40 0 -40 0 0 40 0 40 -40 0 -40 0 0 40 0 40 -40 0
-40 0 0 40 0 40 -40 0 -40 0 0 40 0 40 -40 0 -40 0 0 -40z m320 -320 l0 -40
-40 0 -40 0 0 40 0 40 40 0 40 0 0 -40z m320 -160 l0 -40 -40 0 -40 0 0 -40 0
-40 -40 0 -40 0 0 -40 0 -40 40 0 40 0 0 -40 0 -40 -40 0 -40 0 0 -40 0 -40
-40 0 -40 0 0 40 0 40 -40 0 -40 0 0 40 0 40 40 0 40 0 0 40 0 40 40 0 40 0 0
40 0 40 40 0 40 0 0 40 0 40 40 0 40 0 0 -40z m80 -240 l0 -40 -40 0 -40 0 0
40 0 40 40 0 40 0 0 -40z m-240 -240 l0 -40 -40 0 -40 0 0 40 0 40 40 0 40 0
0 -40z"/>
<path d="M3760 870 l0 -40 40 0 40 0 0 40 0 40 -40 0 -40 0 0 -40z"/>
<path d="M3520 630 l0 -40 40 0 40 0 0 40 0 40 -40 0 -40 0 0 -40z"/>
<path d="M6320 3590 l0 -40 -40 0 -40 0 0 -40 0 -40 40 0 40 0 0 40 0 40 40 0
40 0 0 40 0 40 -40 0 -40 0 0 -40z"/>
<path d="M6080 3510 l0 -40 40 0 40 0 0 40 0 40 -40 0 -40 0 0 -40z"/>
<path d="M6960 3430 l0 -40 -40 0 -40 0 0 -40 0 -40 40 0 40 0 0 -40 0 -40 40
0 40 0 0 40 0 40 40 0 40 0 0 40 0 40 -40 0 -40 0 0 40 0 40 -40 0 -40 0 0
-40z m80 -80 l0 -40 -40 0 -40 0 0 40 0 40 40 0 40 0 0 -40z"/>
<path d="M7600 3430 l0 -40 -40 0 -40 0 0 -40 0 -40 40 0 40 0 0 -40 0 -40 40
0 40 0 0 -40 0 -40 -40 0 -40 0 0 -40 0 -40 -40 0 -40 0 0 -40 0 -40 -40 0
-40 0 0 40 0 40 -40 0 -40 0 0 -40 0 -40 -40 0 -40 0 0 40 0 40 -40 0 -40 0 0
-40 0 -40 40 0 40 0 0 -40 0 -40 -40 0 -40 0 0 -40 0 -40 -40 0 -40 0 0 40 0
40 -40 0 -40 0 0 -40 0 -40 -40 0 -40 0 0 40 0 40 -40 0 -40 0 0 40 0 40 40 0
40 0 0 40 0 40 -40 0 -40 0 0 -40 0 -40 -40 0 -40 0 0 -40 0 -40 -40 0 -40 0
0 -40 0 -40 40 0 40 0 0 -40 0 -40 -40 0 -40 0 0 -40 0 -40 -40 0 -40 0 0 40
0 40 -40 0 -40 0 0 -40 0 -40 40 0 40 0 0 -40 0 -40 -40 0 -40 0 0 -40 0 -40
-40 0 -40 0 0 -40 0 -40 40 0 40 0 0 -40 0 -40 40 0 40 0 0 -40 0 -40 -40 0
-40 0 0 -40 0 -40 40 0 40 0 0 -40 0 -40 -120 0 -120 0 0 40 0 40 40 0 40 0 0
40 0 40 -40 0 -40 0 0 -40 0 -40 -40 0 -40 0 0 -40 0 -40 40 0 40 0 0 -40 0
-40 40 0 40 0 0 -40 0 -40 40 0 40 0 0 -40 0 -40 -40 0 -40 0 0 -40 0 -40 40
0 40 0 0 -40 0 -40 -40 0 -40 0 0 -40 0 -40 40 0 40 0 0 -40 0 -40 -40 0 -40
0 0 -40 0 -40 40 0 40 0 0 -40 0 -40 40 0 40 0 0 40 0 40 -40 0 -40 0 0 40 0
40 40 0 40 0 0 40 0 40 -40 0 -40 0 0 40 0 40 40 0 40 0 0 40 0 40 40 0 40 0
0 -40 0 -40 40 0 40 0 0 40 0 40 40 0 40 0 0 -40 0 -40 40 0 40 0 0 -40 0 -40
-40 0 -40 0 0 -40 0 -40 40 0 40 0 0 40 0 40 40 0 40 0 0 -40 0 -40 40 0 40 0
0 -40 0 -40 -40 0 -40 0 0 -40 0 -40 40 0 40 0 0 -40 0 -40 -40 0 -40 0 0 -40
0 -40 -40 0 -40 0 0 40 0 40 -40 0 -40 0 0 -40 0 -40 40 0 40 0 0 -40 0 -40
-40 0 -40 0 0 -40 0 -40 40 0 40 0 0 -40 0 -40 -40 0 -40 0 0 -40 0 -40 40 0
40 0 0 -40 0 -40 -40 0 -40 0 0 -40 0 -40 40 0 40 0 0 40 0 40 40 0 40 0 0 40
0 40 40 0 40 0 0 40 0 40 -40 0 -40 0 0 40 0 40 40 0 40 0 0 40 0 40 40 0 40
0 0 -40 0 -40 40 0 40 0 0 -40 0 -40 -40 0 -40 0 0 -40 0 -40 40 0 40 0 0 40
0 40 40 0 40 0 0 -40 0 -40 40 0 40 0 0 40 0 40 -40 0 -40 0 0 40 0 40 40 0
40 0 0 40 0 40 40 0 40 0 0 40 0 40 40 0 40 0 0 40 0 40 -40 0 -40 0 0 -40 0
-40 -40 0 -40 0 0 40 0 40 -40 0 -40 0 0 40 0 40 40 0 40 0 0 40 0 40 40 0 40
0 0 -40 0 -40 40 0 40 0 0 40 0 40 -40 0 -40 0 0 40 0 40 -40 0 -40 0 0 40 0
40 -40 0 -40 0 0 40 0 40 40 0 40 0 0 40 0 40 40 0 40 0 0 40 0 40 40 0 40 0
0 40 0 40 -40 0 -40 0 0 -40 0 -40 -40 0 -40 0 0 40 0 40 -40 0 -40 0 0 40 0
40 40 0 40 0 0 40 0 40 40 0 40 0 0 -40 0 -40 40 0 40 0 0 40 0 40 40 0 40 0
0 -40 0 -40 40 0 40 0 0 40 0 40 -40 0 -40 0 0 40 0 40 -40 0 -40 0 0 40 0 40
40 0 40 0 0 40 0 40 40 0 40 0 0 40 0 40 40 0 40 0 0 40 0 40 40 0 40 0 0 40
0 40 -40 0 -40 0 0 40 0 40 -40 0 -40 0 0 40 0 40 -40 0 -40 0 0 40 0 40 -40
0 -40 0 0 40 0 40 40 0 40 0 0 40 0 40 40 0 40 0 0 40 0 40 40 0 40 0 0 40 0
40 -40 0 -40 0 0 40 0 40 -40 0 -40 0 0 40 0 40 40 0 40 0 0 40 0 40 -40 0
-40 0 0 40 0 40 -40 0 -40 0 0 -40z m80 -80 l0 -40 -40 0 -40 0 0 40 0 40 40
0 40 0 0 -40z m80 -240 l0 -40 -40 0 -40 0 0 -40 0 -40 -40 0 -40 0 0 -40 0
-40 -40 0 -40 0 0 40 0 40 40 0 40 0 0 40 0 40 40 0 40 0 0 40 0 40 40 0 40 0
0 -40z m-320 -160 l0 -40 -40 0 -40 0 0 -40 0 -40 40 0 40 0 0 -40 0 -40 40 0
40 0 0 40 0 40 40 0 40 0 0 -40 0 -40 40 0 40 0 0 -40 0 -40 40 0 40 0 0 -40
0 -40 -40 0 -40 0 0 -40 0 -40 40 0 40 0 0 -40 0 -40 -120 0 -120 0 0 -40 0
-40 40 0 40 0 0 -40 0 -40 -40 0 -40 0 0 -40 0 -40 40 0 40 0 0 -40 0 -40 -40
0 -40 0 0 40 0 40 -40 0 -40 0 0 -40 0 -40 -40 0 -40 0 0 -40 0 -40 -40 0 -40
0 0 -40 0 -40 40 0 40 0 0 -40 0 -40 40 0 40 0 0 -40 0 -40 -40 0 -40 0 0 -40
0 -40 -40 0 -40 0 0 -40 0 -40 40 0 40 0 0 -40 0 -40 40 0 40 0 0 -40 0 -40
-40 0 -40 0 0 -40 0 -40 -40 0 -40 0 0 -40 0 -40 -40 0 -40 0 0 -40 0 -40 40
0 40 0 0 -40 0 -40 -40 0 -40 0 0 40 0 40 -40 0 -40 0 0 -40 0 -40 -40 0 -40
0 0 -40 0 -40 -40 0 -40 0 0 40 0 40 40 0 40 0 0 40 0 40 40 0 40 0 0 40 0 40
40 0 40 0 0 40 0 40 -40 0 -40 0 0 40 0 40 40 0 40 0 0 40 0 40 -40 0 -40 0 0
40 0 40 -40 0 -40 0 0 40 0 40 -40 0 -40 0 0 40 0 40 -40 0 -40 0 0 40 0 40
-40 0 -40 0 0 -40 0 -40 -40 0 -40 0 0 40 0 40 -40 0 -40 0 0 -40 0 -40 -40 0
-40 0 0 40 0 40 40 0 40 0 0 40 0 40 -40 0 -40 0 0 40 0 40 40 0 40 0 0 40 0
40 40 0 40 0 0 40 0 40 -40 0 -40 0 0 40 0 40 40 0 40 0 0 40 0 40 40 0 40 0
0 40 0 40 40 0 40 0 0 40 0 40 40 0 40 0 0 40 0 40 -40 0 -40 0 0 40 0 40 -40
0 -40 0 0 -40 0 -40 -40 0 -40 0 0 -40 0 -40 -40 0 -40 0 0 -40 0 -40 -40 0
-40 0 0 40 0 40 40 0 40 0 0 40 0 40 40 0 40 0 0 40 0 40 40 0 40 0 0 40 0 40
40 0 40 0 0 40 0 40 40 0 40 0 0 -40 0 -40 40 0 40 0 0 40 0 40 40 0 40 0 0
-40 0 -40 40 0 40 0 0 40 0 40 40 0 40 0 0 40 0 40 40 0 40 0 0 40 0 40 40 0
40 0 0 -40z m-400 -2000 l0 -40 -40 0 -40 0 0 40 0 40 40 0 40 0 0 -40z"/>
<path d="M7280 2790 l0 -40 -40 0 -40 0 0 -40 0 -40 40 0 40 0 0 -40 0 -40
-40 0 -40 0 0 -40 0 -40 -40 0 -40 0 0 40 0 40 -40 0 -40 0 0 40 0 40 40 0 40
0 0 40 0 40 -40 0 -40 0 0 -40 0 -40 -40 0 -40 0 0 40 0 40 -40 0 -40 0 0 -40
0 -40 40 0 40 0 0 -40 0 -40 40 0 40 0 0 -40 0 -40 -40 0 -40 0 0 -40 0 -40
-40 0 -40 0 0 -40 0 -40 40 0 40 0 0 -40 0 -40 -40 0 -40 0 0 -40 0 -40 -40 0
-40 0 0 40 0 40 -40 0 -40 0 0 -40 0 -40 40 0 40 0 0 -40 0 -40 40 0 40 0 0
-40 0 -40 40 0 40 0 0 40 0 40 40 0 40 0 0 -40 0 -40 40 0 40 0 0 40 0 40 40
0 40 0 0 -40 0 -40 40 0 40 0 0 40 0 40 -40 0 -40 0 0 40 0 40 40 0 40 0 0 40
0 40 -40 0 -40 0 0 -40 0 -40 -40 0 -40 0 0 40 0 40 -40 0 -40 0 0 40 0 40 40
0 40 0 0 40 0 40 40 0 40 0 0 -40 0 -40 120 0 120 0 0 40 0 40 40 0 40 0 0 40
0 40 40 0 40 0 0 40 0 40 40 0 40 0 0 40 0 40 -40 0 -40 0 0 40 0 40 -40 0
-40 0 0 -40 0 -40 -40 0 -40 0 0 40 0 40 -40 0 -40 0 0 40 0 40 -40 0 -40 0 0
-40z m80 -80 l0 -40 40 0 40 0 0 -40 0 -40 40 0 40 0 0 40 0 40 40 0 40 0 0
-40 0 -40 -40 0 -40 0 0 -40 0 -40 -40 0 -40 0 0 -40 0 -40 -120 0 -120 0 0
40 0 40 40 0 40 0 0 40 0 40 40 0 40 0 0 40 0 40 -40 0 -40 0 0 40 0 40 40 0
40 0 0 -40z m-240 -240 l0 -40 -40 0 -40 0 0 -40 0 -40 -40 0 -40 0 0 40 0 40
40 0 40 0 0 40 0 40 40 0 40 0 0 -40z m-80 -240 l0 -40 40 0 40 0 0 -40 0 -40
-40 0 -40 0 0 40 0 40 -40 0 -40 0 0 -40 0 -40 -40 0 -40 0 0 40 0 40 40 0 40
0 0 40 0 40 40 0 40 0 0 -40z"/>
<path d="M7360 2550 l0 -40 40 0 40 0 0 40 0 40 -40 0 -40 0 0 -40z"/>
<path d="M7360 2230 l0 -40 40 0 40 0 0 40 0 40 -40 0 -40 0 0 -40z"/>
<path d="M6720 1910 l0 -40 40 0 40 0 0 40 0 40 -40 0 -40 0 0 -40z"/>
<path d="M6880 1910 l0 -40 40 0 40 0 0 -40 0 -40 40 0 40 0 0 -40 0 -40 40 0
40 0 0 40 0 40 40 0 40 0 0 -40 0 -40 40 0 40 0 0 40 0 40 40 0 40 0 0 40 0
40 -40 0 -40 0 0 40 0 40 -40 0 -40 0 0 -40 0 -40 -40 0 -40 0 0 40 0 40 -40
0 -40 0 0 -40 0 -40 -40 0 -40 0 0 40 0 40 -40 0 -40 0 0 -40z m240 -80 l0
-40 -40 0 -40 0 0 40 0 40 40 0 40 0 0 -40z m160 0 l0 -40 -40 0 -40 0 0 40 0
40 40 0 40 0 0 -40z"/>
<path d="M7200 1590 l0 -40 40 0 40 0 0 -40 0 -40 -40 0 -40 0 0 -40 0 -40 40
0 40 0 0 40 0 40 40 0 40 0 0 40 0 40 -40 0 -40 0 0 40 0 40 -40 0 -40 0 0
-40z"/>
<path d="M5600 3350 l0 -40 40 0 40 0 0 40 0 40 -40 0 -40 0 0 -40z"/>
<path d="M5760 3350 l0 -40 40 0 40 0 0 40 0 40 -40 0 -40 0 0 -40z"/>
<path d="M5920 3350 l0 -40 40 0 40 0 0 40 0 40 -40 0 -40 0 0 -40z"/>
<path d="M5600 3190 l0 -40 40 0 40 0 0 40 0 40 -40 0 -40 0 0 -40z"/>
<path d="M5760 3190 l0 -40 40 0 40 0 0 -40 0 -40 -40 0 -40 0 0 -40 0 -40 40
0 40 0 0 40 0 40 40 0 40 0 0 -40 0 -40 40 0 40 0 0 -40 0 -40 -40 0 -40 0 0
-40 0 -40 40 0 40 0 0 40 0 40 40 0 40 0 0 40 0 40 -40 0 -40 0 0 40 0 40 -40
0 -40 0 0 40 0 40 40 0 40 0 0 40 0 40 -40 0 -40 0 0 -40 0 -40 -40 0 -40 0 0
40 0 40 -40 0 -40 0 0 -40z"/>
<path d="M5600 2870 l0 -40 40 0 40 0 0 -40 0 -40 40 0 40 0 0 40 0 40 -40 0
-40 0 0 40 0 40 -40 0 -40 0 0 -40z"/>
<path d="M6560 2870 l0 -40 40 0 40 0 0 40 0 40 -40 0 -40 0 0 -40z"/>
<path d="M6240 2710 l0 -40 40 0 40 0 0 40 0 40 -40 0 -40 0 0 -40z"/>
<path d="M6400 2710 l0 -40 40 0 40 0 0 40 0 40 -40 0 -40 0 0 -40z"/>
<path d="M5680 2630 l0 -40 40 0 40 0 0 40 0 40 -40 0 -40 0 0 -40z"/>
<path d="M8000 2550 l0 -40 40 0 40 0 0 40 0 40 -40 0 -40 0 0 -40z"/>
<path d="M6160 2470 l0 -40 40 0 40 0 0 -40 0 -40 40 0 40 0 0 40 0 40 -40 0
-40 0 0 40 0 40 -40 0 -40 0 0 -40z"/>
<path d="M3360 2390 l0 -40 40 0 40 0 0 40 0 40 -40 0 -40 0 0 -40z"/>
<path d="M5280 2390 l0 -40 40 0 40 0 0 -40 0 -40 40 0 40 0 0 40 0 40 -40 0
-40 0 0 40 0 40 -40 0 -40 0 0 -40z"/>
<path d="M5680 2310 l0 -40 -40 0 -40 0 0 -40 0 -40 40 0 40 0 0 -40 0 -40 40
0 40 0 0 40 0 40 -40 0 -40 0 0 40 0 40 40 0 40 0 0 40 0 40 -40 0 -40 0 0
-40z"/>
<path d="M4320 2230 l0 -40 40 0 40 0 0 40 0 40 -40 0 -40 0 0 -40z"/>
<path d="M5680 1990 l0 -40 -40 0 -40 0 0 -40 0 -40 -40 0 -40 0 0 40 0 40
-40 0 -40 0 0 -40 0 -40 40 0 40 0 0 -40 0 -40 40 0 40 0 0 -40 0 -40 -40 0
-40 0 0 -40 0 -40 40 0 40 0 0 -40 0 -40 -40 0 -40 0 0 -40 0 -40 -40 0 -40 0
0 -40 0 -40 -40 0 -40 0 0 -40 0 -40 -40 0 -40 0 0 -40 0 -40 40 0 40 0 0 40
0 40 40 0 40 0 0 -40 0 -40 40 0 40 0 0 -40 0 -40 40 0 40 0 0 -40 0 -40 -40
0 -40 0 0 -40 0 -40 40 0 40 0 0 40 0 40 40 0 40 0 0 40 0 40 -40 0 -40 0 0
40 0 40 40 0 40 0 0 40 0 40 -40 0 -40 0 0 40 0 40 40 0 40 0 0 40 0 40 -40 0
-40 0 0 40 0 40 40 0 40 0 0 40 0 40 -40 0 -40 0 0 40 0 40 40 0 40 0 0 40 0
40 40 0 40 0 0 -40 0 -40 40 0 40 0 0 40 0 40 -40 0 -40 0 0 40 0 40 -40 0
-40 0 0 40 0 40 40 0 40 0 0 40 0 40 -40 0 -40 0 0 -40z m-160 -640 l0 -40 40
0 40 0 0 -40 0 -40 -40 0 -40 0 0 40 0 40 -40 0 -40 0 0 40 0 40 40 0 40 0 0
-40z"/>
<path d="M6000 1990 l0 -40 40 0 40 0 0 -40 0 -40 40 0 40 0 0 40 0 40 -40 0
-40 0 0 40 0 40 -40 0 -40 0 0 -40z"/>
<path d="M4000 1910 l0 -40 40 0 40 0 0 40 0 40 -40 0 -40 0 0 -40z"/>
<path d="M5920 1750 l0 -40 40 0 40 0 0 40 0 40 -40 0 -40 0 0 -40z"/>
<path d="M7680 1750 l0 -40 40 0 40 0 0 40 0 40 -40 0 -40 0 0 -40z"/>
<path d="M5760 1590 l0 -40 40 0 40 0 0 -40 0 -40 40 0 40 0 0 -40 0 -40 40 0
40 0 0 -40 0 -40 -40 0 -40 0 0 -40 0 -40 -40 0 -40 0 0 40 0 40 -40 0 -40 0
0 -40 0 -40 40 0 40 0 0 -40 0 -40 -40 0 -40 0 0 -40 0 -40 40 0 40 0 0 40 0
40 40 0 40 0 0 40 0 40 40 0 40 0 0 40 0 40 40 0 40 0 0 40 0 40 -40 0 -40 0
0 40 0 40 -40 0 -40 0 0 40 0 40 40 0 40 0 0 40 0 40 -40 0 -40 0 0 -40 0 -40
-40 0 -40 0 0 40 0 40 -40 0 -40 0 0 -40z"/>
<path d="M6720 1590 l0 -40 40 0 40 0 0 40 0 40 -40 0 -40 0 0 -40z"/>
<path d="M4960 1430 l0 -40 40 0 40 0 0 -40 0 -40 -40 0 -40 0 0 -40 0 -40
-40 0 -40 0 0 -40 0 -40 40 0 40 0 0 -40 0 -40 40 0 40 0 0 -40 0 -40 40 0 40
0 0 40 0 40 -40 0 -40 0 0 40 0 40 -40 0 -40 0 0 40 0 40 40 0 40 0 0 40 0 40
40 0 40 0 0 -40 0 -40 40 0 40 0 0 40 0 40 -40 0 -40 0 0 40 0 40 -40 0 -40 0
0 40 0 40 -40 0 -40 0 0 -40z"/>
<path d="M6720 1270 l0 -40 40 0 40 0 0 40 0 40 -40 0 -40 0 0 -40z"/>
<path d="M3040 1110 l0 -40 40 0 40 0 0 40 0 40 -40 0 -40 0 0 -40z"/>
<path d="M6560 1110 l0 -40 40 0 40 0 0 40 0 40 -40 0 -40 0 0 -40z"/>
<path d="M5760 950 l0 -40 40 0 40 0 0 40 0 40 -40 0 -40 0 0 -40z"/>
<path d="M6240 950 l0 -40 40 0 40 0 0 -40 0 -40 -40 0 -40 0 0 -40 0 -40 40
0 40 0 0 -40 0 -40 40 0 40 0 0 -40 0 -40 40 0 40 0 0 40 0 40 -40 0 -40 0 0
40 0 40 40 0 40 0 0 40 0 40 40 0 40 0 0 -40 0 -40 40 0 40 0 0 40 0 40 -40 0
-40 0 0 40 0 40 -40 0 -40 0 0 40 0 40 -40 0 -40 0 0 -40 0 -40 -40 0 -40 0 0
40 0 40 -40 0 -40 0 0 -40z m240 -80 l0 -40 -40 0 -40 0 0 -40 0 -40 -40 0
-40 0 0 40 0 40 40 0 40 0 0 40 0 40 40 0 40 0 0 -40z"/>
<path d="M6720 950 l0 -40 40 0 40 0 0 40 0 40 -40 0 -40 0 0 -40z"/>
<path d="M5520 870 l0 -40 -40 0 -40 0 0 -40 0 -40 40 0 40 0 0 40 0 40 40 0
40 0 0 40 0 40 -40 0 -40 0 0 -40z"/>
<path d="M5280 630 l0 -40 40 0 40 0 0 -40 0 -40 40 0 40 0 0 -40 0 -40 40 0
40 0 0 40 0 40 40 0 40 0 0 40 0 40 40 0 40 0 0 40 0 40 -40 0 -40 0 0 -40 0
-40 -40 0 -40 0 0 40 0 40 -40 0 -40 0 0 -40 0 -40 -40 0 -40 0 0 40 0 40 -40
0 -40 0 0 -40z m240 -80 l0 -40 -40 0 -40 0 0 40 0 40 40 0 40 0 0 -40z"/>
<path d="M6560 630 l0 -40 40 0 40 0 0 40 0 40 -40 0 -40 0 0 -40z"/>
<path d="M4640 470 l0 -40 40 0 40 0 0 40 0 40 -40 0 -40 0 0 -40z"/>
<path d="M6240 470 l0 -40 -40 0 -40 0 0 -40 0 -40 40 0 40 0 0 -40 0 -40 -40
0 -40 0 0 -40 0 -40 40 0 40 0 0 40 0 40 40 0 40 0 0 40 0 40 40 0 40 0 0 -40
0 -40 40 0 40 0 0 -40 0 -40 40 0 40 0 0 40 0 40 40 0 40 0 0 40 0 40 40 0 40
0 0 40 0 40 -40 0 -40 0 0 40 0 40 -40 0 -40 0 0 -40 0 -40 40 0 40 0 0 -40 0
-40 -120 0 -120 0 0 40 0 40 40 0 40 0 0 40 0 40 -40 0 -40 0 0 -40 0 -40 -40
0 -40 0 0 40 0 40 -40 0 -40 0 0 -40z m80 -80 l0 -40 -40 0 -40 0 0 40 0 40
40 0 40 0 0 -40z"/>
<path d="M4160 310 l0 -40 40 0 40 0 0 40 0 40 -40 0 -40 0 0 -40z"/>
<path d="M4320 310 l0 -40 40 0 40 0 0 40 0 40 -40 0 -40 0 0 -40z"/>
<path d="M3440 230 l0 -40 -40 0 -40 0 0 -40 0 -40 40 0 40 0 0 40 0 40 40 0
40 0 0 40 0 40 -40 0 -40 0 0 -40z"/>
<path d="M4960 3190 l0 -40 40 0 40 0 0 40 0 40 -40 0 -40 0 0 -40z"/>
<path d="M10720 3030 l0 -40 -40 0 -40 0 0 -40 0 -40 40 0 40 0 0 40 0 40 40
0 40 0 0 40 0 40 -40 0 -40 0 0 -40z"/>
<path d="M10000 2310 l0 -40 40 0 40 0 0 40 0 40 -40 0 -40 0 0 -40z"/>
<path d="M11280 3270 l0 -40 40 0 40 0 0 40 0 40 -40 0 -40 0 0 -40z"/>
<path d="M800 3190 l0 -40 40 0 40 0 0 -40 0 -40 40 0 40 0 0 40 0 40 -40 0
-40 0 0 40 0 40 -40 0 -40 0 0 -40z"/>
<path d="M1040 2630 l0 -40 -40 0 -40 0 0 -40 0 -40 40 0 40 0 0 -40 0 -40
-40 0 -40 0 0 -40 0 -40 40 0 40 0 0 40 0 40 40 0 40 0 0 40 0 40 -40 0 -40 0
0 40 0 40 40 0 40 0 0 40 0 40 -40 0 -40 0 0 -40z"/>
<path d="M560 1670 l0 -40 40 0 40 0 0 -40 0 -40 40 0 40 0 0 40 0 40 -40 0
-40 0 0 40 0 40 -40 0 -40 0 0 -40z"/>
<path d="M560 1350 l0 -40 40 0 40 0 0 40 0 40 -40 0 -40 0 0 -40z"/>
<path d="M560 1190 l0 -40 -40 0 -40 0 0 -40 0 -40 40 0 40 0 0 40 0 40 40 0
40 0 0 40 0 40 -40 0 -40 0 0 -40z"/>
<path d="M1440 1430 l0 -40 40 0 40 0 0 40 0 40 -40 0 -40 0 0 -40z"/>
<path d="M10320 870 l0 -40 40 0 40 0 0 40 0 40 -40 0 -40 0 0 -40z"/>
<path d="M10160 710 l0 -40 40 0 40 0 0 40 0 40 -40 0 -40 0 0 -40z"/>
<path d="M560 550 l0 -40 40 0 40 0 0 40 0 40 -40 0 -40 0 0 -40z"/>
<path d="M11520 5430 l0 -40 40 0 40 0 0 40 0 40 -40 0 -40 0 0 -40z"/>
<path d="M11680 5430 l0 -40 40 0 40 0 0 40 0 40 -40 0 -40 0 0 -40z"/>
<path d="M11520 5270 l0 -40 40 0 40 0 0 40 0 40 -40 0 -40 0 0 -40z"/>
<path d="M11680 5270 l0 -40 40 0 40 0 0 40 0 40 -40 0 -40 0 0 -40z"/>
<path d="M11200 5110 l0 -40 40 0 40 0 0 40 0 40 -40 0 -40 0 0 -40z"/>
<path d="M11360 5110 l0 -40 40 0 40 0 0 40 0 40 -40 0 -40 0 0 -40z"/>
<path d="M11520 5110 l0 -40 40 0 40 0 0 40 0 40 -40 0 -40 0 0 -40z"/>
<path d="M11680 5110 l0 -40 40 0 40 0 0 40 0 40 -40 0 -40 0 0 -40z"/>
<path d="M10400 4950 l0 -40 40 0 40 0 0 40 0 40 -40 0 -40 0 0 -40z"/>
<path d="M10720 4950 l0 -40 40 0 40 0 0 40 0 40 -40 0 -40 0 0 -40z"/>
<path d="M11360 4950 l0 -40 40 0 40 0 0 40 0 40 -40 0 -40 0 0 -40z"/>
<path d="M11520 4950 l0 -40 40 0 40 0 0 40 0 40 -40 0 -40 0 0 -40z"/>
<path d="M11680 4950 l0 -40 40 0 40 0 0 40 0 40 -40 0 -40 0 0 -40z"/>
<path d="M4160 4790 l0 -40 40 0 40 0 0 40 0 40 -40 0 -40 0 0 -40z"/>
<path d="M10560 4790 l0 -40 40 0 40 0 0 40 0 40 -40 0 -40 0 0 -40z"/>
<path d="M10720 4790 l0 -40 40 0 40 0 0 40 0 40 -40 0 -40 0 0 -40z"/>
<path d="M4000 4630 l0 -40 40 0 40 0 0 40 0 40 -40 0 -40 0 0 -40z"/>
<path d="M3840 4470 l0 -40 40 0 40 0 0 40 0 40 -40 0 -40 0 0 -40z"/>
<path d="M4000 4470 l0 -40 40 0 40 0 0 40 0 40 -40 0 -40 0 0 -40z"/>
<path d="M4480 4470 l0 -40 40 0 40 0 0 40 0 40 -40 0 -40 0 0 -40z"/>
<path d="M10560 4470 l0 -40 40 0 40 0 0 40 0 40 -40 0 -40 0 0 -40z"/>
<path d="M4640 4310 l0 -40 40 0 40 0 0 -40 0 -40 -40 0 -40 0 0 -40 0 -40 40
0 40 0 0 40 0 40 40 0 40 0 0 -40 0 -40 40 0 40 0 0 40 0 40 -40 0 -40 0 0 40
0 40 -40 0 -40 0 0 40 0 40 -40 0 -40 0 0 -40z"/>
<path d="M4480 4150 l0 -40 40 0 40 0 0 40 0 40 -40 0 -40 0 0 -40z"/>
<path d="M4640 3990 l0 -40 40 0 40 0 0 40 0 40 -40 0 -40 0 0 -40z"/>
<path d="M4800 3990 l0 -40 40 0 40 0 0 40 0 40 -40 0 -40 0 0 -40z"/>
<path d="M4960 3990 l0 -40 40 0 40 0 0 40 0 40 -40 0 -40 0 0 -40z"/>
<path d="M3200 3830 l0 -40 40 0 40 0 0 40 0 40 -40 0 -40 0 0 -40z"/>
<path d="M4320 3830 l0 -40 40 0 40 0 0 40 0 40 -40 0 -40 0 0 -40z"/>
<path d="M4480 3830 l0 -40 40 0 40 0 0 40 0 40 -40 0 -40 0 0 -40z"/>
<path d="M4640 3830 l0 -40 40 0 40 0 0 40 0 40 -40 0 -40 0 0 -40z"/>
<path d="M4320 3670 l0 -40 40 0 40 0 0 40 0 40 -40 0 -40 0 0 -40z"/>
<path d="M4640 3670 l0 -40 40 0 40 0 0 40 0 40 -40 0 -40 0 0 -40z"/>
<path d="M3200 3510 l0 -40 40 0 40 0 0 40 0 40 -40 0 -40 0 0 -40z"/>
<path d="M3520 3510 l0 -40 40 0 40 0 0 40 0 40 -40 0 -40 0 0 -40z"/>
<path d="M4160 3510 l0 -40 40 0 40 0 0 40 0 40 -40 0 -40 0 0 -40z"/>
<path d="M4320 3510 l0 -40 40 0 40 0 0 40 0 40 -40 0 -40 0 0 -40z"/>
<path d="M4480 3510 l0 -40 40 0 40 0 0 40 0 40 -40 0 -40 0 0 -40z"/>
<path d="M3040 3350 l0 -40 40 0 40 0 0 40 0 40 -40 0 -40 0 0 -40z"/>
<path d="M4320 3350 l0 -40 40 0 40 0 0 40 0 40 -40 0 -40 0 0 -40z"/>
<path d="M3520 3190 l0 -40 40 0 40 0 0 40 0 40 -40 0 -40 0 0 -40z"/>
<path d="M3680 3190 l0 -40 40 0 40 0 0 40 0 40 -40 0 -40 0 0 -40z"/>
<path d="M4480 3190 l0 -40 40 0 40 0 0 40 0 40 -40 0 -40 0 0 -40z"/>
<path d="M3040 3030 l0 -40 40 0 40 0 0 40 0 40 -40 0 -40 0 0 -40z"/>
<path d="M3680 3030 l0 -40 40 0 40 0 0 40 0 40 -40 0 -40 0 0 -40z"/>
<path d="M3200 2870 l0 -40 40 0 40 0 0 40 0 40 -40 0 -40 0 0 -40z"/>
<path d="M4480 2550 l0 -40 40 0 40 0 0 40 0 40 -40 0 -40 0 0 -40z"/>
<path d="M4640 2550 l0 -40 40 0 40 0 0 40 0 40 -40 0 -40 0 0 -40z"/>
<path d="M4640 2390 l0 -40 40 0 40 0 0 40 0 40 -40 0 -40 0 0 -40z"/>
<path d="M4640 2230 l0 -40 40 0 40 0 0 40 0 40 -40 0 -40 0 0 -40z"/>
<path d="M5120 15 c0 -11 11 -15 40 -15 29 0 40 4 40 15 0 11 -11 15 -40 15
-29 0 -40 -4 -40 -15z"/>
</g>
</svg>
